<?xml version="1.0" encoding="utf-8"?>
<!-- Generator: Adobe Illustrator 22.0.0, SVG Export Plug-In . SVG Version: 6.00 Build 0)  -->
<svg version="1.1" id="Layer_1" xmlns="http://www.w3.org/2000/svg" xmlns:xlink="http://www.w3.org/1999/xlink" x="0px" y="0px"
	 viewBox="0 0 187.9 74" style="enable-background:new 0 0 187.9 74;" xml:space="preserve">
<g>
	<path d="M61.6,25.6c-1.3,1.7-1.9,2.5-3.2,4.2c1.2,0,1.8,0,3,0C61.4,28.1,61.5,27.2,61.6,25.6z"/>
	<path d="M94,51.6c-0.7,0-1.1,0-1.8,0c-0.4,0.9-0.6,1.4-0.9,2.3c0.7,0,1,0,1.7,0c0.2,0,0.6-0.1,1.1-0.2c0.3,0,0.6-0.2,0.8-0.4
		c0.2-0.2,0.4-0.4,0.5-0.7c0.1-0.4,0.1-0.6-0.1-0.8C95.3,51.7,94.8,51.6,94,51.6z"/>
	<path d="M81.5,9.8c-1.6,1.9-2.4,2.8-4,4.7c1.8,0,2.7,0,4.5,0C81.8,12.6,81.7,11.7,81.5,9.8z"/>
	<path d="M114.2,25.6c-1.3,1.7-1.9,2.5-3.2,4.2c1.2,0,1.8,0,3,0C114.1,28.1,114.1,27.2,114.2,25.6z"/>
	<path d="M74.7,38.9c-1.3,1.6-1.9,2.5-3.1,4.1c1.2,0,1.8,0,2.9,0C74.6,41.4,74.6,40.5,74.7,38.9z"/>
	<path d="M116.5,43c0.1-1.6,0.1-2.5,0.2-4.1c-1.3,1.6-1.9,2.5-3.1,4.1C114.7,43,115.3,43,116.5,43z"/>
	<path d="M31.9,14.5c1.8,0,2.7,0,4.5,0c-0.2-1.9-0.3-2.8-0.5-4.7C34.3,11.7,33.5,12.6,31.9,14.5z"/>
	<path d="M137.1,0.3v3.6c-13.4-3.2-29.5-4.6-46.7-3.4c-9,0.6-17.6,1.9-25.6,3.7H0l17.2,17.8h6.4c-7.8,6.3-12,13.4-11.5,20.7
		c1.4,20.2,38.7,34.1,83.4,31c15.4-1.1,29.6-4,41.7-8.2v5.2h50.9V0.3H137.1z M137.1,36.4c-0.3-0.8-0.8-1.3-1.2-1.6
		c-0.4-0.3-0.9-0.6-1.4-0.8l2.7-6.5V36.4z M136.5,22.6c-1.9,4.6-2.8,7-4.7,11.6c-1.6,0-2.4,0-4,0c-1-2.5-1.5-3.8-2.5-6.4
		c-1,2.5-1.6,3.8-2.6,6.4c-1.6,0-2.4,0-3.9,0c1.9-4.6,2.8-7,4.7-11.6c1.6,0,2.4,0,3.9,0c1,2.6,1.5,3.9,2.5,6.4
		c1.1-2.6,1.6-3.9,2.6-6.4C134.1,22.6,134.9,22.6,136.5,22.6z M99.9,38.8c0.5-1.1,0.7-1.7,1.1-2.8c5,0,7.5,0,12.5,0
		c-0.5,1.1-0.7,1.7-1.1,2.8c-1.7,0-2.5,0-4.2,0c-1.4,3.4-2.1,5.1-3.5,8.6c-1.6,0-2.5,0-4.1,0c1.4-3.4,2.1-5.1,3.5-8.6
		C102.4,38.8,101.5,38.8,99.9,38.8z M96.1,56.1c0.1,0.1,0.2,0.3,0.4,0.6c0.2,0.3,0.3,0.5,0.3,0.7c0.3,1.3,0.4,2,0.6,3.3
		c-1.8,0-2.8,0-4.6,0c-0.3-1.4-0.5-2.1-0.8-3.4c-0.1-0.4-0.2-0.7-0.4-0.9c-0.2-0.2-0.5-0.3-0.9-0.3c-0.1,0-0.2,0-0.4,0
		c-0.7,1.8-1.1,2.7-1.9,4.6c-1.6,0-2.5,0-4.1,0c1.8-4.5,2.8-6.7,4.6-11.2c2.7,0,4.1,0,6.8,0c1.3,0,2.2,0.1,2.8,0.3
		c0.6,0.2,1,0.5,1.2,1c0.2,0.5,0.2,1.1-0.1,1.8c-0.3,0.6-0.6,1.2-1.1,1.6c-0.5,0.5-1.1,0.8-1.7,1.1c-0.4,0.2-1,0.3-1.6,0.4
		C95.7,55.8,96,55.9,96.1,56.1z M84,58.1c-0.4,1-0.6,1.5-1,2.5c-4.4,0-6.7,0-11.1,0c1.8-4.5,2.8-6.7,4.6-11.2c4.4,0,6.5,0,10.9,0
		c-0.4,1-0.6,1.4-1,2.4c-2.7,0-4.1,0-6.8,0c-0.3,0.7-0.4,1.1-0.7,1.8c2.5,0,3.8,0,6.3,0c-0.4,0.9-0.6,1.4-0.9,2.3
		c-2.5,0-3.8,0-6.3,0c-0.4,0.9-0.5,1.3-0.9,2.2C79.8,58.1,81.2,58.1,84,58.1z M64.1,57.9c0.2,0.5,0.7,0.7,1.5,0.7
		c0.6,0,1.1-0.1,1.5-0.3c0.4-0.2,0.7-0.5,0.8-0.8c0.1-0.3,0.1-0.6-0.1-0.8C67.6,56.4,67,56.2,66,56c-1.6-0.3-2.7-0.8-3.3-1.4
		c-0.5-0.6-0.6-1.3-0.3-2.2c0.2-0.6,0.7-1.1,1.3-1.6c0.6-0.5,1.4-0.9,2.3-1.2c0.9-0.3,2-0.4,3.4-0.4c1.7,0,2.9,0.3,3.5,0.8
		c0.7,0.5,0.8,1.4,0.5,2.6c-1.6,0.1-2.3,0.1-3.9,0.2c0.1-0.5,0-0.9-0.2-1.1c-0.2-0.2-0.6-0.3-1.2-0.3c-0.5,0-0.9,0.1-1.2,0.3
		c-0.3,0.2-0.5,0.4-0.6,0.6c-0.1,0.2,0,0.3,0.1,0.5c0.1,0.1,0.5,0.3,1.2,0.4c1.6,0.3,2.8,0.7,3.4,1c0.6,0.3,1,0.8,1.2,1.2
		c0.1,0.5,0.1,1.1-0.2,1.7c-0.3,0.7-0.8,1.4-1.5,2C69.8,59.6,69,60,68,60.3c-1,0.3-2.1,0.5-3.4,0.5c-2.2,0-3.6-0.4-4.2-1.1
		c-0.6-0.7-0.7-1.7-0.3-2.8c1.6-0.1,2.4-0.1,4-0.2C64,57.2,64,57.6,64.1,57.9z M80.5,22.6c2.2,0,3.3,0,5.5,0
		c-1.9,4.6-2.8,7-4.7,11.6c-1.4,0-2.1,0-3.4,0c1.4-3.5,2.2-5.3,3.6-8.9c-2.5,3.5-3.8,5.3-6.3,8.9c-1.2,0-1.9,0-3.1,0
		c0.4-3.5,0.6-5.3,1-8.9c-1.4,3.5-2.2,5.3-3.6,8.9c-1.4,0-2.1,0-3.4,0c1.9-4.6,2.8-7,4.7-11.6c2.2,0,3.3,0,5.5,0
		c-0.3,2.8-0.5,4.2-0.8,7.1C77.5,26.8,78.5,25.4,80.5,22.6z M97.8,16.3c0.4,0.5,1.3,0.8,2.5,0.8c0.9,0,1.6-0.1,2.2-0.4
		c0.6-0.3,0.9-0.6,1.1-0.9c0.1-0.3,0-0.6-0.4-0.9c-0.4-0.3-1.3-0.5-2.9-0.8c-2.6-0.4-4.4-0.9-5.3-1.6c-0.9-0.7-1.2-1.5-0.8-2.5
		c0.2-0.7,0.8-1.3,1.6-1.9c0.8-0.6,1.9-1.1,3.2-1.4c1.3-0.3,3.1-0.5,5.2-0.5c2.6,0,4.5,0.3,5.6,0.9c1.1,0.6,1.6,1.6,1.3,3
		c-2.4,0.1-3.6,0.1-6,0.2c0.1-0.6-0.1-1-0.5-1.3c-0.4-0.3-1-0.4-1.9-0.4c-0.7,0-1.3,0.1-1.8,0.3c-0.4,0.2-0.7,0.4-0.8,0.7
		c-0.1,0.2,0,0.4,0.2,0.6c0.2,0.2,0.9,0.3,1.9,0.5c2.6,0.4,4.4,0.8,5.5,1.1c1,0.4,1.7,0.9,2,1.4c0.3,0.6,0.4,1.2,0.1,1.9
		c-0.3,0.8-1,1.6-1.9,2.3c-1,0.7-2.2,1.2-3.6,1.6c-1.4,0.4-3.1,0.5-5.1,0.5c-3.4,0-5.7-0.4-6.7-1.3c-1-0.9-1.4-1.9-1-3.2
		c2.4-0.1,3.6-0.1,6-0.2C97.5,15.5,97.6,16,97.8,16.3z M109.1,32.2c-0.6,0.8-0.9,1.1-1.4,1.9c-1.7,0-2.6,0-4.3,0
		c3.3-3.9,6.6-7.7,9.9-11.6c1.8,0,2.7,0,4.6,0c0.1,4.6,0.2,7,0.4,11.6c-1.8,0-2.6,0-4.4,0c0-0.8,0.1-1.1,0.1-1.9
		C112,32.2,111,32.2,109.1,32.2z M98.9,34.2c-1-2.5-1.5-3.8-2.5-6.4c-1,2.5-1.6,3.8-2.6,6.4c-1.6,0-2.4,0-3.9,0
		c1.9-4.6,2.8-7,4.7-11.6c1.6,0,2.4,0,3.9,0c1,2.6,1.5,3.9,2.5,6.4c1.1-2.6,1.6-3.9,2.6-6.4c1.6,0,2.4,0,4,0
		c-1.9,4.6-2.8,7-4.7,11.6C101.3,34.2,100.5,34.2,98.9,34.2z M99.7,36c-1.9,4.6-2.8,6.8-4.7,11.4c-1.7,0-2.5,0-4.1,0
		c1.9-4.6,2.8-6.8,4.7-11.4C97.3,36,98.1,36,99.7,36z M90.8,44.5c-0.5,1.1-0.7,1.7-1.1,2.8c-4.2,0-6.3,0-10.5,0
		c1.9-4.6,2.8-6.8,4.7-11.4c1.6,0,2.5,0,4.1,0c-1.4,3.4-2.1,5.1-3.5,8.6C87,44.5,88.2,44.5,90.8,44.5z M92.3,22.6
		c-1.9,4.6-2.8,7-4.7,11.6c-1.7,0-2.5,0-4.2,0c1.9-4.6,2.8-7,4.7-11.6C89.8,22.6,90.7,22.6,92.3,22.6z M73.7,36c1.8,0,2.7,0,4.5,0
		c0.1,4.6,0.2,6.8,0.4,11.4c-1.7,0-2.6,0-4.3,0c0-0.8,0.1-1.1,0.1-1.9c-1.9,0-2.8,0-4.7,0c-0.6,0.8-0.9,1.1-1.4,1.9
		c-1.7,0-2.5,0-4.2,0C67.3,43.5,70.5,39.8,73.7,36z M105.3,49.4c-0.1,3.2-0.2,4.9-0.3,8.1c2.5-3.2,3.7-4.9,6.2-8.1
		c1.7,0,2.5,0,4.1,0c-3.2,3.7-6.3,7.5-9.5,11.2c-1.8,0-2.6,0-4.4,0c-0.1-4.5-0.2-6.7-0.4-11.2C102.7,49.4,103.6,49.4,105.3,49.4z
		 M116,49.4c1.6,0,2.4,0,4.1,0c-1.8,4.5-2.8,6.7-4.6,11.2c-1.6,0-2.4,0-4.1,0C113.3,56.1,114.2,53.9,116,49.4z M116.2,47.3
		c0-0.8,0.1-1.1,0.1-1.9c-1.9,0-2.8,0-4.7,0c-0.6,0.8-0.9,1.1-1.4,1.9c-1.7,0-2.5,0-4.2,0c3.2-3.8,6.4-7.6,9.7-11.4
		c1.8,0,2.7,0,4.5,0c0.1,4.6,0.2,6.8,0.4,11.4C118.8,47.3,117.9,47.3,116.2,47.3z M130.3,7.2c1.1,0.6,1.6,1.6,1.3,3
		c-2.4,0.1-3.6,0.1-6,0.2c0.1-0.6-0.1-1-0.5-1.3c-0.4-0.3-1-0.4-1.9-0.4c-0.7,0-1.3,0.1-1.8,0.3c-0.4,0.2-0.7,0.4-0.8,0.7
		c-0.1,0.2,0,0.4,0.2,0.6c0.2,0.2,0.9,0.3,1.9,0.5c2.6,0.4,4.4,0.8,5.5,1.1c1,0.4,1.7,0.9,2,1.4c0.3,0.6,0.4,1.2,0.1,1.9
		c-0.3,0.8-1,1.6-1.9,2.3c-1,0.7-2.2,1.2-3.6,1.6c-1.4,0.4-3.1,0.5-5.1,0.5c-3.4,0-5.7-0.4-6.7-1.3c-1-0.9-1.4-1.9-1-3.2
		c2.4-0.1,3.6-0.1,6-0.2c-0.1,0.6,0,1.1,0.3,1.4c0.4,0.5,1.3,0.8,2.5,0.8c0.9,0,1.6-0.1,2.2-0.4c0.6-0.3,0.9-0.6,1.1-0.9
		c0.1-0.3,0-0.6-0.4-0.9c-0.4-0.3-1.3-0.5-2.9-0.8c-2.6-0.4-4.4-0.9-5.3-1.6c-0.9-0.7-1.2-1.5-0.8-2.5c0.2-0.7,0.8-1.3,1.6-1.9
		c0.8-0.6,1.9-1.1,3.2-1.4c1.3-0.3,3.1-0.5,5.2-0.5C127.3,6.2,129.1,6.5,130.3,7.2z M85.6,3.8c14-3.1,27.4-2.7,38.2,0.3H84.3
		C84.7,4,85.1,3.9,85.6,3.8z M86.3,6.5c0.9,4.3,1.9,8.7,2.8,13c-2.6,0-3.9,0-6.6,0c-0.1-0.9-0.1-1.3-0.2-2.1c-2.8,0-4.3,0-7.1,0
		c-0.7,0.9-1.1,1.3-1.8,2.1c-2.6,0-3.8,0-6.4,0c4.2-4.3,8.3-8.7,12.5-13C82.2,6.5,83.5,6.5,86.3,6.5z M50.3,6.5c2.5,0,3.8,0,6.3,0
		c-0.7,1.8-1,2.7-1.7,4.6c2.7,0,4.1,0,6.8,0c0.7-1.8,1-2.7,1.7-4.6c2.5,0,3.8,0,6.3,0c-1.6,4.3-3.2,8.7-4.8,13c-2.5,0-3.8,0-6.3,0
		c0.8-2.1,1.2-3.2,2-5.3c-2.7,0-4.1,0-6.8,0c-0.8,2.1-1.2,3.2-2,5.3c-2.5,0-3.8,0-6.3,0C47,15.1,48.7,10.8,50.3,6.5z M56.4,32.2
		c-0.6,0.8-0.9,1.1-1.4,1.9c-1.7,0-2.6,0-4.3,0c3.3-3.9,6.6-7.7,9.9-11.6c1.8,0,2.7,0,4.6,0c0.1,4.6,0.2,7,0.4,11.6
		c-1.8,0-2.6,0-4.4,0c0-0.8,0.1-1.1,0.1-1.9C59.3,32.2,58.3,32.2,56.4,32.2z M45.3,31.5c0.1,0.1,0.3,0.2,0.6,0.2
		c0.5,0,0.9-0.1,1.2-0.4c0.3-0.3,0.7-0.8,0.9-1.5c1.2-2.9,1.8-4.3,2.9-7.2c1.7,0,2.5,0,4.2,0c-1,2.5-1.5,3.8-2.6,6.3
		c-0.5,1.3-1.1,2.3-1.6,3c-0.6,0.7-1.4,1.3-2.4,1.8c-1,0.5-2.2,0.7-3.5,0.7c-1.4,0-2.4-0.2-3-0.5c-0.6-0.3-1-0.8-1.2-1.4
		c-0.2-0.6-0.1-1.4,0.2-2.3c1.7-0.2,2.5-0.3,4.2-0.5c-0.2,0.5-0.3,0.9-0.3,1.1S45.2,31.4,45.3,31.5z M48.7,22l-1.8,4.4l-0.3,0.8
		l-1.4,0.2l-1.4,0.2C45.1,25.7,46.8,23.8,48.7,22z M36.6,17.3c-2.8,0-4.3,0-7.1,0c-0.7,0.9-1.1,1.3-1.8,2.1c-2.6,0-3.8,0-6.4,0
		c4.2-4.3,8.3-8.7,12.4-13c2.7,0,4.1,0,6.8,0c0.9,4.3,1.9,8.7,2.8,13c-2.6,0-3.9,0-6.6,0C36.8,18.6,36.7,18.2,36.6,17.3z M39.5,34.6
		c0.2,0.3,0.5,0.6,0.8,0.8L38,41l-0.5,1.3C37.7,39.7,38.4,37.2,39.5,34.6z M42.6,36c1.6,0,2.5,0,4.1,0c-0.7,1.7-1.1,2.6-1.8,4.3
		c2.4-1.7,3.6-2.6,6.1-4.3c2.2,0,3.3,0,5.4,0c0,0,0.1,0,0.1,0c1.6,0,2.4,0,4,0c-1.1,2.8-1.7,4.2-2.8,6.9c-0.3,0.6-0.3,1.1,0,1.5
		c0.3,0.3,0.7,0.5,1.5,0.5c0.7,0,1.3-0.2,1.9-0.5c0.5-0.3,0.9-0.8,1.2-1.5c1.1-2.8,1.7-4.2,2.8-6.9c1.6,0,2.5,0,4.1,0
		c-1.1,2.7-1.7,4.1-2.8,6.8c-0.3,0.7-0.7,1.3-1.1,1.9c-0.5,0.6-1.1,1.1-1.8,1.6c-0.7,0.4-1.4,0.8-2,0.9c-0.9,0.3-1.9,0.4-3,0.4
		c-0.6,0-1.3,0-2.1-0.1c-0.7-0.1-1.3-0.2-1.7-0.5c-0.4-0.2-0.8-0.6-1-1c-0.3-0.4-0.4-0.9-0.3-1.3c0-0.7,0.2-1.4,0.4-1.9
		c1.1-2.7,1.7-4,2.7-6.7c-2.6,1.7-3.9,2.5-6.5,4.2c0.9,2.8,1.3,4.3,2.2,7.1c-2,0-3,0-5.1,0c-0.4-1.9-0.5-2.8-0.9-4.7
		c-1.2,0.8-1.7,1.1-2.9,1.9c-0.5,1.1-0.7,1.7-1.1,2.8c-1.6,0-2.5,0-4.1,0C39.8,42.8,40.7,40.5,42.6,36z M100,69.6
		c-29.8,6.5-57.2-2.4-61.9-20h4h1.6l0.6-1.5l0.4-0.9l0.1,0.4l0.4,1.9H47H52h3.2l0-0.1c0.3,0.1,0.5,0.1,0.8,0.1
		c0.8,0.1,1.6,0.1,2.3,0.1c0.8,0,1.6-0.1,2.4-0.2h0.7c-0.5,0.6-1,1.2-1.2,1.9c-0.4,1-0.5,2-0.2,3l0,0l-1.6,0.1l-0.5,1.6
		c-0.7,2.4,0,4,0.7,4.9c1.4,1.8,4.1,2,6.1,2c1.4,0,2.7-0.2,3.8-0.5L68.4,63h3.5H81h2h1.5h0.1h4h1.6l0.5-1.3L91,63h1.9h4.6h1.7h1.2
		h1.1h4.4h1.1l0.7-0.8l1.3-1.6l-1,2.4h3.5h4.1h1.6l0.4-1c0.7,0.5,1.4,0.7,2.2,0.9C113.8,65.8,107.1,68.1,100,69.6z M131.5,52.5
		c-1.6,0.1-2.3,0.1-3.9,0.2c0.1-0.5,0-0.9-0.2-1.1c-0.2-0.2-0.6-0.3-1.2-0.3c-0.5,0-0.9,0.1-1.2,0.3c-0.3,0.2-0.5,0.4-0.6,0.6
		c-0.1,0.2,0,0.3,0.1,0.5c0.1,0.1,0.5,0.3,1.2,0.4c1.6,0.3,2.8,0.7,3.4,1c0.6,0.3,1,0.8,1.2,1.2c0.1,0.5,0.1,1.1-0.2,1.7
		c-0.3,0.7-0.8,1.4-1.5,2c-0.7,0.6-1.6,1.1-2.5,1.4c-1,0.3-2.1,0.5-3.4,0.5c-2.2,0-3.6-0.4-4.2-1.1c-0.6-0.7-0.7-1.7-0.3-2.8
		c1.6-0.1,2.4-0.1,4-0.2c-0.1,0.5-0.1,0.9,0,1.2c0.2,0.5,0.7,0.7,1.5,0.7c0.6,0,1.1-0.1,1.5-0.3c0.4-0.2,0.7-0.5,0.8-0.8
		c0.1-0.3,0.1-0.6-0.1-0.8c-0.2-0.2-0.8-0.4-1.8-0.7c-1.6-0.3-2.7-0.8-3.3-1.4c-0.5-0.6-0.6-1.3-0.3-2.2c0.2-0.6,0.7-1.1,1.3-1.6
		c0.6-0.5,1.4-0.9,2.3-1.2c0.9-0.3,2-0.4,3.4-0.4c1.7,0,2.9,0.3,3.5,0.8C131.6,50.5,131.8,51.4,131.5,52.5z M132,45.7
		c-0.7,0.6-1.6,1.1-2.6,1.4c-1,0.3-2.1,0.5-3.4,0.5c-2.3,0-3.7-0.4-4.3-1.1c-0.6-0.7-0.7-1.7-0.3-2.8c1.6-0.1,2.4-0.1,4-0.2
		c-0.1,0.5-0.1,1,0,1.2c0.2,0.5,0.7,0.7,1.5,0.7c0.6,0,1.1-0.1,1.5-0.4c0.4-0.2,0.7-0.5,0.8-0.8c0.1-0.3,0.1-0.6-0.1-0.8
		c-0.2-0.2-0.8-0.5-1.8-0.7c-1.7-0.3-2.8-0.8-3.3-1.4c-0.5-0.6-0.6-1.3-0.3-2.2c0.2-0.6,0.7-1.1,1.3-1.7c0.6-0.5,1.4-0.9,2.3-1.2
		c0.9-0.3,2.1-0.4,3.5-0.4c1.7,0,2.9,0.3,3.6,0.8c0.7,0.5,0.9,1.4,0.5,2.6c-1.6,0.1-2.4,0.1-4,0.2c0.1-0.5,0-0.9-0.2-1.1
		c-0.2-0.2-0.6-0.3-1.2-0.3c-0.5,0-0.9,0.1-1.2,0.3c-0.3,0.2-0.5,0.4-0.6,0.6c-0.1,0.2,0,0.3,0.1,0.5c0.1,0.1,0.5,0.3,1.2,0.4
		c1.7,0.3,2.8,0.7,3.5,1c0.6,0.3,1,0.8,1.2,1.3c0.1,0.5,0.1,1.1-0.2,1.7C133.2,44.4,132.7,45,132,45.7z M133.4,54.3l0.3-1.2
		c0.7-2.8-0.5-4.3-1.3-4.9c0.4-0.2,0.7-0.5,1-0.7c1-0.9,1.7-1.8,2.2-2.9c0.4-1.1,0.5-2.1,0.3-3.1l0.8,0l0.3-1.3v11
		C135.9,52.2,134.7,53.3,133.4,54.3z M186.1,68.7h-47.1V2.1h47.1V68.7z"/>
	<polygon points="163.7,48.1 160.8,48.1 155.7,42.6 150.8,46.8 154.8,51.2 155.1,54.5 159.9,59.5 161.1,58.5 157.8,55.1 158.4,54.4 
		161.8,57.9 163.3,56.6 160,53.1 160.6,52.5 164,55.9 165.1,55 161.8,51.5 162.4,50.9 165.8,54.3 166.8,53.4 164,50.4 	"/>
	<polygon points="164.7,43.7 164.6,47.9 164.9,50 166.3,51.5 169.5,52 173.4,52 177.1,49.4 177.4,46.2 173.2,49.5 168.2,49.1 
		167.7,44.5 171.8,40.8 168.3,40.7 	"/>
	<polygon points="157.9,58.7 155.3,56.2 151.1,59.8 156.7,59.8 	"/>
	<path d="M168.9,48.1l4,0.5l2.2-2l-0.6-3.5l-3.5-0.4l-2.4,2.2L168.9,48.1z M171.9,44.5c0.7,0,1.3,0.6,1.3,1.3c0,0.7-0.6,1.3-1.3,1.3
		c-0.7,0-1.3-0.6-1.3-1.3C170.6,45,171.2,44.5,171.9,44.5z"/>
	<path d="M143.5,64c0.2-0.1,0.3-0.2,0.4-0.3s0.1-0.3,0.1-0.5c0-0.2,0-0.3-0.1-0.4c-0.1-0.1-0.2-0.2-0.3-0.3
		c-0.1-0.1-0.2-0.1-0.4-0.2c-0.1,0-0.4,0-0.7,0H141V66h1.3c0.5,0,0.8,0,0.9,0c0.2,0,0.4-0.1,0.5-0.2c0.1-0.1,0.2-0.2,0.3-0.4
		c0.1-0.2,0.1-0.3,0.1-0.5c0-0.2-0.1-0.4-0.2-0.6C143.9,64.2,143.7,64.1,143.5,64z M141.8,62.9h0.4c0.4,0,0.6,0,0.7,0
		c0.1,0,0.2,0.1,0.3,0.1c0.1,0.1,0.1,0.2,0.1,0.3c0,0.1,0,0.2-0.1,0.3c-0.1,0.1-0.2,0.1-0.3,0.1c-0.1,0-0.3,0-0.6,0h-0.5V62.9z
		 M143.3,65.2c-0.1,0.1-0.2,0.1-0.3,0.2c-0.1,0-0.2,0-0.5,0h-0.7v-1h0.6c0.3,0,0.6,0,0.7,0.1c0.1,0,0.2,0.1,0.2,0.2
		c0.1,0.1,0.1,0.2,0.1,0.3C143.4,65,143.3,65.1,143.3,65.2z"/>
	<polygon points="145.6,64.4 147.5,64.4 147.5,63.7 145.6,63.7 145.6,62.9 147.6,62.9 147.6,62.3 144.8,62.3 144.8,66 147.7,66 
		147.7,65.4 145.6,65.4 	"/>
	<polygon points="150.6,64.8 149.1,62.3 148.3,62.3 148.3,66 149,66 149,63.6 150.6,66 151.3,66 151.3,62.3 150.6,62.3 	"/>
	<path d="M153.9,64.6h0.9v0.5c-0.1,0.1-0.3,0.2-0.4,0.2c-0.2,0.1-0.3,0.1-0.5,0.1c-0.3,0-0.6-0.1-0.8-0.3s-0.3-0.6-0.3-1
		c0-0.4,0.1-0.7,0.3-0.9c0.2-0.2,0.5-0.3,0.8-0.3c0.2,0,0.4,0.1,0.5,0.2s0.2,0.3,0.3,0.4l0.8-0.1c-0.1-0.3-0.2-0.6-0.5-0.8
		c-0.3-0.2-0.6-0.3-1.1-0.3c-0.4,0-0.7,0.1-0.9,0.2c-0.3,0.2-0.6,0.4-0.7,0.7c-0.2,0.3-0.2,0.7-0.2,1c0,0.4,0.1,0.7,0.2,1
		c0.1,0.3,0.4,0.5,0.7,0.7c0.3,0.2,0.6,0.2,1,0.2c0.3,0,0.6-0.1,0.9-0.2c0.3-0.1,0.5-0.3,0.7-0.4V64h-1.6V64.6z"/>
	<polygon points="159.6,62.3 158.6,62.3 157,63.9 157,62.3 156.3,62.3 156.3,66 157,66 157,64.9 157.6,64.3 158.7,66 159.7,66 
		158.2,63.7 	"/>
	<polygon points="160.8,64.4 162.7,64.4 162.7,63.7 160.8,63.7 160.8,62.9 162.8,62.9 162.8,62.3 160,62.3 160,66 162.9,66 
		162.9,65.4 160.8,65.4 	"/>
	<polygon points="164.4,62.3 163.6,62.3 163.6,66 166.2,66 166.2,65.4 164.4,65.4 	"/>
	<path d="M170.7,64.7c-0.1-0.1-0.2-0.2-0.4-0.3c0.3,0,0.6-0.2,0.7-0.3c0.2-0.2,0.2-0.4,0.2-0.7c0-0.2-0.1-0.4-0.2-0.6
		c-0.1-0.2-0.3-0.3-0.4-0.4c-0.2-0.1-0.5-0.1-0.9-0.1h-1.6V66h0.8v-1.6h0.2c0.2,0,0.3,0,0.4,0c0.1,0,0.2,0.1,0.2,0.2
		s0.2,0.3,0.4,0.6l0.6,0.8h0.9l-0.5-0.7C170.9,65,170.8,64.8,170.7,64.7z M169.5,63.9h-0.6v-1h0.6c0.3,0,0.5,0,0.6,0
		c0.1,0,0.2,0.1,0.3,0.1c0.1,0.1,0.1,0.2,0.1,0.3c0,0.1,0,0.2-0.1,0.3s-0.1,0.1-0.2,0.2C170.1,63.8,169.9,63.9,169.5,63.9z"/>
	<polygon points="172.7,64.4 174.6,64.4 174.6,63.7 172.7,63.7 172.7,62.9 174.8,62.9 174.8,62.3 172,62.3 172,66 174.8,66 
		174.8,65.4 172.7,65.4 	"/>
	<path d="M177.8,64c-0.2-0.1-0.5-0.2-0.8-0.3c-0.4-0.1-0.6-0.2-0.7-0.3c-0.1-0.1-0.1-0.1-0.1-0.2c0-0.1,0-0.2,0.1-0.2
		c0.1-0.1,0.3-0.1,0.5-0.1c0.2,0,0.4,0,0.5,0.1c0.1,0.1,0.2,0.2,0.2,0.4l0.8,0c0-0.3-0.1-0.6-0.4-0.8c-0.2-0.2-0.6-0.3-1.1-0.3
		c-0.3,0-0.5,0-0.7,0.1c-0.2,0.1-0.4,0.2-0.5,0.4c-0.1,0.2-0.2,0.3-0.2,0.5c0,0.3,0.1,0.6,0.3,0.8c0.2,0.1,0.5,0.3,0.9,0.4
		c0.3,0.1,0.5,0.1,0.6,0.2c0.1,0,0.2,0.1,0.3,0.2c0.1,0.1,0.1,0.1,0.1,0.2c0,0.1-0.1,0.3-0.2,0.4c-0.1,0.1-0.3,0.2-0.6,0.2
		c-0.2,0-0.4-0.1-0.6-0.2c-0.1-0.1-0.2-0.3-0.3-0.5l-0.7,0.1c0.1,0.4,0.2,0.7,0.5,1c0.3,0.2,0.6,0.3,1.1,0.3c0.3,0,0.6,0,0.8-0.1
		c0.2-0.1,0.4-0.2,0.5-0.4c0.1-0.2,0.2-0.4,0.2-0.6c0-0.2-0.1-0.4-0.2-0.6C178.1,64.2,178,64,177.8,64z"/>
	<polygon points="180.8,64.8 180.1,62.3 179,62.3 179,66 179.7,66 179.7,63.1 180.4,66 181.2,66 181.9,63.1 181.9,66 182.6,66 
		182.6,62.3 181.5,62.3 	"/>
	<rect x="183.4" y="62.3" width="0.8" height="3.8"/>
	<path d="M176.1,31.1c-0.2,0.3-0.3,0.6-0.5,0.9c0.4,0,0.7,0,1,0C176.5,31.6,176.3,31.3,176.1,31.1C176.1,31.1,176.1,31.1,176.1,31.1
		z"/>
	<path d="M156.6,30.8c-0.7-0.3-1.4,0-1.7,0.7c-0.3,0.6,0,1.3,0.3,1.7c0.1,0.1,0.2,0.2,0.4,0.2c0.1,0,0.5,0.1,0.8,0
		c0.6-0.2,0.9-0.8,0.9-1.4C157.4,31.4,157.1,31.1,156.6,30.8z"/>
	<path d="M170.2,30.9c-0.3,0-0.6,0-0.8,0c-0.2,0-0.2,0-0.2,0.2c0,0.3,0,0.7,0,1c0,0.3,0,0.7,0,1c0,0.2,0,0.2,0.2,0.2
		c0.3,0,0.6,0,0.9,0c0.3,0,0.5-0.1,0.7-0.2c0.5-0.3,0.6-0.8,0.4-1.3C171.2,31.3,170.7,30.9,170.2,30.9z"/>
	<path d="M184.2,4.2H141v33.9h43.2V4.2z M145.8,21.2c0.5-0.7,1.1-1.1,1.9-1.4c0.4-0.1,0.7-0.3,1.1-0.4c0.6-0.2,1.2-0.5,1.8-0.7
		c0.6-0.2,1.2-0.5,1.8-0.7c0.5-0.2,1.1-0.4,1.6-0.7c0.6-0.2,1.2-0.5,1.8-0.7c0.7-0.3,1.4-0.6,2-0.8c0.5-0.2,0.9-0.4,1.4-0.6
		c0.7-0.3,1.4-0.6,2.1-0.8c0.6-0.2,1.1-0.5,1.7-0.7c0.7-0.3,1.4-0.6,2.1-0.8c0.5-0.2,0.9-0.4,1.4-0.6c0.7-0.3,1.4-0.6,2.1-0.8
		c0.5-0.2,1-0.4,1.4-0.6c0.7-0.3,1.4-0.6,2.1-0.8c0.6-0.2,1.1-0.5,1.7-0.7c0.7-0.3,1.4-0.6,2.1-0.8c0.5-0.2,1-0.4,1.4-0.6
		c0.7-0.3,1.4-0.6,2.1-0.8c0.1,0,0.2-0.1,0.2-0.1c0,0,0,0,0.1,0c-0.2,0.6-0.4,1.3-0.6,1.9c-0.3,0.9-0.9,1.6-1.7,2.1
		c-0.9,0.6-1.8,1-2.8,1.3c-0.6,0.2-1.1,0.4-1.7,0.6c-0.8,0.3-1.5,0.5-2.3,0.8c-0.9,0.3-1.8,0.7-2.8,1c-1,0.4-2,0.7-3,1.1
		c-0.8,0.3-1.6,0.6-2.4,0.9c-0.9,0.3-1.8,0.6-2.7,0.9c-0.7,0.2-1.3,0.5-2,0.7c-0.8,0.3-1.5,0.6-2.3,0.8c-0.6,0.2-1.3,0.5-1.9,0.7
		c-0.8,0.3-1.5,0.6-2.3,0.8c-0.7,0.2-1.3,0.5-2,0.7c-0.3,0.1-0.6,0.2-0.9,0.3c-0.3,0.1-0.6,0.3-0.8,0.6c-0.4,0.5-0.2,0.9,0.2,1.3
		c0.4,0.3,0.7,0.6,1.1,0.9c0.6,0.5,1.2,1,1.8,1.5c0.4,0.4,0.9,0.8,1.3,1.1c0.7,0.6,1.4,1.2,2.1,1.8c0.2,0.2,0.4,0.3,0.5,0.5
		c0,0,0.1,0.1,0.1,0.1c0,0,0,0,0,0c0,0-0.1,0-0.1,0c-0.7,0-1.5,0-2.2,0c-0.1,0-0.2,0-0.3-0.1c-0.4-0.4-0.8-0.7-1.2-1.1
		c-0.5-0.4-1-0.9-1.5-1.3c-0.3-0.3-0.6-0.5-0.9-0.8c-0.7-0.7-1.4-1.4-2.1-2.1C145.3,23.2,145.3,22.1,145.8,21.2z M165.7,25
		c-1,0.2-2.1,0.3-3.1,0.5c-0.1,0-0.2,0-0.3,0.1c-0.2,0.1-0.3,0.2-0.3,0.4c0,0.1-0.1,0.2-0.2,0.2c-0.7,0.1-1.5,0.2-2.2,0.3
		c-0.5,0.1-1,0.1-1.5,0.2c-1.2,0.1-2.4,0.3-3.7,0.4c-0.5,0.1-1,0.1-1.4,0.2c-0.1,0-0.2,0-0.3-0.1c-0.4-0.4-0.8-0.7-1.2-1.1
		c-0.1-0.1-0.2-0.1-0.2-0.2c0,0,0,0,0,0c6.7-1.3,13.4-2.6,20.2-3.9c0,0,0,0,0,0c-0.1,0.2-0.2,0.3-0.3,0.5c-0.3,0.5-0.7,0.9-1.1,1.3
		c-0.7,0.6-1.5,1-2.4,1.1C167,24.8,166.4,25,165.7,25z M167.1,29.3c0,0-0.1,0-0.1,0c-3.9,0-7.8,0-11.7,0c-0.1,0-0.2,0-0.3-0.1
		c-0.5-0.5-1.1-1-1.6-1.5c0,0,0,0-0.1-0.1c0.1,0,0.2,0,0.2,0c0.6-0.1,1.3-0.2,1.9-0.2c1-0.1,2-0.3,3-0.4c0.7-0.1,1.4-0.2,2-0.3
		c0.7-0.1,1.3-0.2,2-0.3c0.1,0,0.2,0,0.4,0.1c0.9,0.6,1.7,1.1,2.6,1.7c0.5,0.3,1,0.7,1.5,1C167,29.2,167.1,29.3,167.1,29.3z
		 M170.5,21.1c-0.6,0.1-1.2,0.2-1.9,0.4c-0.8,0.1-1.5,0.3-2.3,0.4c-0.6,0.1-1.1,0.2-1.7,0.3c-0.9,0.2-1.9,0.3-2.8,0.5
		c-0.9,0.2-1.8,0.3-2.7,0.5c-0.2,0-0.3,0.1-0.5,0.2c-0.1,0.1-0.2,0.2-0.2,0.3c0,0.1,0,0.1-0.1,0.2c-1.1,0.2-2.2,0.4-3.3,0.6
		c-0.7,0.1-1.3,0.2-2,0.4c-0.7,0.1-1.4,0.3-2,0.4c-0.1,0-0.2,0-0.2-0.1c-0.4-0.4-0.8-0.7-1.2-1.1c-0.1-0.1-0.1-0.1,0-0.2
		c0.9-0.2,1.8-0.5,2.7-0.7c0.4-0.1,0.8-0.2,1.2-0.3c0.8-0.2,1.7-0.4,2.5-0.6c0.9-0.2,1.8-0.5,2.7-0.7c0.8-0.2,1.7-0.4,2.5-0.7
		c1-0.3,2-0.5,3-0.8c1-0.3,2-0.5,3-0.8c1.2-0.3,2.5-0.6,3.7-1c1.1-0.3,2.2-0.6,3.3-0.9c0.2-0.1,0.5-0.1,0.7-0.2c0,0,0.1,0,0.1,0
		c0,0,0,0,0,0c-0.1,0.1-0.2,0.3-0.2,0.4c-0.3,0.6-0.7,1.1-1.2,1.6C172.6,20.3,171.7,20.8,170.5,21.1z M173.3,16.8
		c-0.6,0.2-1.2,0.3-1.9,0.5c-1.1,0.3-2.1,0.6-3.2,0.8c-0.7,0.2-1.4,0.4-2.2,0.6c-1.2,0.3-2.4,0.6-3.6,1c-0.7,0.2-1.4,0.4-2.2,0.6
		c-0.9,0.2-1.8,0.5-2.8,0.7c-0.5,0.1-1,0.3-1.5,0.4c-0.1,0-0.3,0.1-0.4,0.1c-0.2,0.1-0.3,0.2-0.3,0.4c0,0.1-0.1,0.2-0.2,0.2
		c-0.7,0.2-1.5,0.4-2.2,0.6c-0.5,0.1-1,0.3-1.6,0.4c-0.8,0.2-1.7,0.4-2.5,0.7c-0.1,0-0.1,0-0.2,0c-0.3-0.2-0.5-0.4-0.7-0.7
		c-0.2-0.3-0.2-0.6,0.1-0.8c0.2-0.1,0.5-0.3,0.7-0.4c0.8-0.3,1.5-0.5,2.3-0.7c0.9-0.3,1.7-0.6,2.6-0.8c0.7-0.2,1.4-0.5,2.1-0.7
		c0.7-0.2,1.5-0.5,2.2-0.7c0.6-0.2,1.2-0.4,1.7-0.6c1.1-0.4,2.3-0.7,3.4-1.1c0.9-0.3,1.7-0.6,2.6-0.9c0.8-0.3,1.7-0.5,2.5-0.8
		c0.7-0.2,1.5-0.5,2.2-0.7c0.7-0.2,1.5-0.5,2.2-0.7c0.7-0.2,1.5-0.5,2.2-0.7c0.7-0.2,1.3-0.4,2-0.7c0.1,0,0.1,0,0.2,0
		c-0.1,0.2-0.1,0.3-0.1,0.4c-0.4,1.1-1,2-1.9,2.8C174.7,16.3,174,16.6,173.3,16.8z M152.2,33.4c0.2,0,0.3,0,0.5,0
		c0.1,0,0.2,0,0.2,0.2c0,0.1,0,0.3,0,0.4c0,0.2,0,0.2-0.2,0.2c-0.8,0-1.7,0-2.5,0c-0.1,0-0.2,0-0.3,0c-0.1,0-0.2-0.1-0.2-0.2
		c0-0.2,0-0.3,0-0.5c0-0.1,0-0.2,0.2-0.2c0.2,0,0.3,0,0.5,0c0.1,0,0.2,0,0.2-0.1c0-0.2,0-0.3,0-0.5c0-0.1,0-0.1-0.1-0.1
		c-0.7,0-1.3,0-2,0c-0.1,0-0.1,0-0.1,0.1c0,0.2,0,0.3,0,0.5c0,0.1,0,0.1,0.1,0.1c0.2,0,0.3,0,0.5,0c0.1,0,0.2,0,0.2,0.2
		c0,0.2,0,0.3,0,0.5c0,0.1,0,0.2-0.2,0.2c-0.5,0-0.9,0-1.4,0c-0.4,0-0.9,0-1.3,0c-0.2,0-0.2,0-0.2-0.2c0-0.1,0-0.3,0-0.4
		c0-0.1,0-0.2,0.2-0.2c0.2,0,0.3,0,0.5,0c0.1,0,0.2,0,0.1-0.2c0-0.7,0-1.4,0-2.1c0-0.1,0-0.2-0.2-0.2c-0.2,0-0.3,0-0.5,0
		c-0.1,0-0.2,0-0.2-0.2c0-0.1,0-0.3,0-0.4c0-0.2,0-0.2,0.2-0.2c0.5,0,1.1,0,1.6,0c0.4,0,0.7,0,1.1,0c0.2,0,0.2,0,0.2,0.2
		c0,0.2,0,0.3,0,0.5c0,0.1,0,0.2-0.2,0.2c-0.2,0-0.3,0-0.5,0c-0.1,0-0.1,0-0.1,0.1c0,0.2,0,0.3,0,0.5c0,0.1,0,0.1,0.1,0.1
		c0.7,0,1.4,0,2,0c0.1,0,0.1,0,0.1-0.1c0-0.2,0-0.4,0-0.5c0-0.1-0.1-0.1-0.1-0.1c-0.2,0-0.3,0-0.5,0c-0.1,0-0.2-0.1-0.2-0.2
		c0-0.1,0-0.3,0-0.4c0-0.2,0-0.2,0.2-0.2c0.5,0,0.9,0,1.4,0c0.4,0,0.9,0,1.3,0c0.2,0,0.2,0,0.2,0.2c0,0.1,0,0.3,0,0.4
		c0,0.1,0,0.1-0.1,0.1c-0.2,0-0.3,0-0.5,0c-0.1,0-0.1,0-0.1,0.1c0,0.7,0,1.4,0,2.1C152.1,33.3,152.1,33.4,152.2,33.4z M157.9,34
		c-0.4,0.2-0.8,0.3-1.2,0.3c-0.2,0-0.7,0.1-1.4,0l0,0c-0.4-0.1-0.8-0.2-1.2-0.4c-0.8-0.5-1.2-1.5-0.9-2.4c0.2-0.5,0.5-0.9,1-1.1
		c0.5-0.3,1.1-0.4,1.6-0.4c0.6-0.1,1.1,0,1.7,0.2c0.5,0.2,1,0.4,1.4,0.9c0.2,0.3,0.3,0.7,0.3,1C159.2,33,158.7,33.6,157.9,34z
		 M166.4,30.7c0,0.1-0.1,0.1-0.1,0.1c-0.1,0-0.3,0-0.4,0c-0.2,0-0.2,0-0.2,0.2c0,0.9,0,1.9,0,2.8c0,0.3,0,0.3-0.3,0.3
		c-0.6,0-1.2,0-1.8,0c-0.1,0-0.2,0-0.3-0.2c-0.6-0.8-1.2-1.7-1.8-2.5c-0.1-0.1-0.1-0.2-0.2-0.3c0,0,0,0,0,0c0,0,0,0.1,0,0.1
		c0,0.6,0,1.3,0,1.9c0,0.2,0,0.2,0.2,0.2c0.1,0,0.2,0,0.3,0c0.1,0,0.1,0,0.1,0.1c0,0.2,0,0.3,0,0.5c0,0.1-0.1,0.1-0.1,0.1
		c-0.7,0-1.4,0-2.1,0c-0.1,0-0.1,0-0.1-0.1c0-0.2,0-0.3,0-0.5c0-0.1,0-0.1,0.1-0.1c0.1,0,0.3,0,0.4,0c0.1,0,0.2,0,0.2-0.2
		c0-0.7,0-1.5,0-2.2c0-0.1,0-0.2-0.2-0.2c-0.1,0-0.3,0-0.4,0c-0.1,0-0.2,0-0.2-0.1c0-0.1,0-0.3,0-0.4c0-0.1,0-0.1,0.1-0.1
		c0.2,0,0.3,0,0.5,0c0.8,0,1.5,0,2.3,0c0.1,0,0.2,0,0.3,0.2c0.5,0.8,1.1,1.5,1.6,2.3c0.1,0.1,0.2,0.3,0.3,0.4c0,0,0-0.1,0-0.1
		c0-0.6,0-1.2,0-1.8c0-0.2,0-0.2-0.2-0.2c-0.1,0-0.2,0-0.3,0c-0.1,0-0.1,0-0.1-0.1c0-0.2,0-0.3,0-0.5c0-0.1,0-0.1,0.1-0.1
		c0.7,0,1.4,0,2.1,0c0.1,0,0.1,0,0.1,0.1C166.4,30.4,166.4,30.6,166.4,30.7z M171.1,34.1c-0.7,0-3.5,0-4.1,0c-0.2,0-0.2,0-0.2-0.2
		c0-0.1,0-0.3,0-0.4c0-0.1,0-0.2,0.2-0.2c0.1,0,0.3,0,0.4,0c0.1,0,0.2,0,0.2-0.2c0-0.7,0-1.4,0-2.1c0-0.1,0-0.2-0.2-0.2
		c-0.1,0-0.3,0-0.4,0c-0.2,0-0.2,0-0.2-0.2c0-0.1,0-0.3,0-0.4c0-0.1,0-0.2,0.2-0.2c0,0,0.1,0,0.1,0c1,0,2.1,0,3.1,0
		c0.4,0,0.7,0,1.1,0.1c0.7,0.1,1.3,0.5,1.6,1.2c0.2,0.5,0.2,0.9,0,1.4C172.5,33.6,171.9,34.1,171.1,34.1z M180,34.2
		c-1.1,0-2.1,0-3.2,0c-0.1,0-0.2,0-0.2-0.2c0-0.2,0-0.4,0-0.5c0-0.1,0-0.2,0.2-0.2c0.1,0,0.3,0,0.4,0c0,0,0.1,0,0.2,0
		c-0.1-0.2-0.2-0.4-0.3-0.5c0,0-0.1,0-0.1,0c-0.6,0-1.2,0-1.8,0c-0.1,0-0.1,0-0.2,0.1c-0.1,0.1-0.2,0.3-0.3,0.4c0,0,0,0,0,0
		c0.1,0,0.2,0,0.4,0c0.4,0,0.4,0,0.4,0.4c0,0.1,0,0.2,0,0.3c0,0.1,0,0.2-0.2,0.2c-0.4,0-0.7,0-1.1,0c-0.4,0-0.8,0-1.1,0
		c-0.2,0-0.2,0-0.2-0.2c0-0.2,0-0.3,0-0.5c0-0.2,0-0.2,0.2-0.2c0.2,0,0.3,0,0.5,0c0.1,0,0.2,0,0.2-0.1c0.4-0.7,0.8-1.4,1.2-2.1
		c0,0,0-0.1,0.1-0.2c-0.1,0-0.1,0-0.2,0c-0.2,0-0.4,0-0.6,0c-0.1,0-0.2,0-0.2-0.2c0-0.2,0-0.4,0-0.5c0-0.2,0-0.2,0.2-0.2
		c0.7,0,1.4,0,2,0c0.3,0,0.6,0,0.9,0c0.1,0,0.2,0,0.2,0.2c0.5,1,1.1,2,1.6,3c0.1,0.1,0.1,0.1,0.3,0.1c0.2,0,0.4,0,0.6,0
		C180,33.6,180,33.9,180,34.2z"/>
</g>
</svg>
