<?xml version="1.0" encoding="utf-8"?>
<!-- Generator: Adobe Illustrator 22.0.0, SVG Export Plug-In . SVG Version: 6.00 Build 0)  -->
<svg version="1.1" id="Layer_1" xmlns="http://www.w3.org/2000/svg" xmlns:xlink="http://www.w3.org/1999/xlink" x="0px" y="0px"
	 viewBox="0 0 128.7 141.9" style="enable-background:new 0 0 128.7 141.9;" xml:space="preserve">
<style type="text/css">
	.st0{fill:#FFFFFF;}
</style>
<g>
	<path class="st0" d="M120.7,29.8c-1.4,2.7-2.8,5.3-4.7,8.8c-1.6-1.2-3.5-1.8-5.6-1.9c-2.2-0.1-4.3,0.3-6.3,1.2
		c-3.1,1.4-5.7,3.8-7.7,7.4c-2.1,3.5-3.1,7.3-3.1,11.2c0,4.1,1,6.9,3.1,8.6s4.7,1.8,7.8,0.4c1.7-0.7,3.8-2.3,6.4-4.8
		c0-2.7,0-5.3,0-5.3l-5.9,3l0.1-8.7c0,0,14.1-6.3,19.6-8.8c0,8-0.1,16-0.1,24.1c-2.7,3.4-6.1,6.7-10.1,9.9c-4,3.2-7.7,5.6-11.2,7.1
		c-7.6,3.4-13.9,3.4-18.8,0s-7.4-9.5-7.3-18.1c0.1-8.9,3-17.5,7.8-24.8c4.8-7.4,11.5-13.6,19.6-17.3c0.6-0.3,1.2-0.5,1.9-0.8L75,2.9
		C68.2-1,59.9-1,53.2,2.9L10.6,27.5C3.9,31.4-0.3,38.6-0.3,46.4v49.1c0,5.9,2.4,11.5,6.5,15.6c0.1-14.9,0.2-29.9,0.3-44.8
		c8.2-3.7,16.3-7.4,24.5-11c5.8-2.6,10.5-3.4,14-2.3c3.5,1.1,5.2,3.9,5.2,8.4c0,2.9-0.8,5.8-2.3,8.7c-1.5,2.9-3.5,5.4-6,7.4
		c2.9-0.5,5.2,0.2,6.9,2.1s2.6,4.7,2.6,8.4c0,5-1.8,9.8-5.4,14.3c-3.6,4.6-8.3,8.2-14.2,10.8c-4.4,2-8.8,4-13.2,5.9l34.6,20
		c6.8,3.9,15.1,3.9,21.8,0l42.5-24.6c6.8-3.9,10.9-11.1,10.9-18.9V46.4C128.5,39.9,125.6,33.9,120.7,29.8z M72.2,95
		c-6.4,2.9-9.6,4.3-16,7.2c0.1-14.7,0.2-29.4,0.3-44c2.3,1.2,4.9,1.9,7.6,1.9c3,0,5.9-0.8,8.3-2.2C72.4,70.2,72.3,82.6,72.2,95z
		 M64.1,54.7c-6.3,0-11.4-5.1-11.4-11.4s5.1-11.4,11.4-11.4S75.5,37,75.5,43.3S70.4,54.7,64.1,54.7z"/>
	<path class="st0" d="M22.2,103.3c3.1-1.4,4.6-2.1,7.7-3.4c1.5-0.7,2.7-1.6,3.6-2.9c0.9-1.3,1.4-2.6,1.4-4c0-1.3-0.4-2.1-1.3-2.5
		c-0.9-0.4-2.1-0.2-3.6,0.4c-3.1,1.4-4.6,2.1-7.7,3.4C22.2,98,22.2,99.8,22.2,103.3z"/>
	<path class="st0" d="M32.7,75.8c0.7-1.1,1-2.3,1-3.5s-0.3-2.1-1-2.5s-1.5-0.4-2.7,0.1c-3.1,1.4-4.6,2.1-7.7,3.4c0,3.3,0,5,0,8.3
		c3.1-1.4,4.6-2.1,7.7-3.4C31.1,77.6,32,76.9,32.7,75.8z"/>
</g>
</svg>
