<?xml version="1.0" encoding="utf-8"?>
<!-- Generator: Adobe Illustrator 22.0.0, SVG Export Plug-In . SVG Version: 6.00 Build 0)  -->
<svg version="1.1" id="Layer_1" xmlns="http://www.w3.org/2000/svg" xmlns:xlink="http://www.w3.org/1999/xlink" x="0px" y="0px"
	 viewBox="0 0 171.9 123.4" style="enable-background:new 0 0 171.9 123.4;" xml:space="preserve">
<g>
	<path d="M68.5,84.9c-1.2,0.1-2,1-1.9,2.1c0,1.1,0.9,1.9,2.1,1.9c8,0,16,0,23.9,0c1.3,0,2.2-0.9,2.1-2.2c-0.1-1.1-0.9-1.7-2.3-1.9
		c0-5.9,0-11.7,0-17.6c2-0.2,2.3,0,2.3,2c0,3.4,0,6.9,0,10.3c0,3,2.3,5.3,5.2,5.4c2.9,0,5.3-2.3,5.3-5.3c0-7.1,0-14.2,0-21.4
		c0-1.3-0.4-2.3-1.3-3.2c-1.4-1.4-2.8-2.8-4.2-4.1c-0.4-0.4-1.2-0.5-1.8-0.5c-0.7,0-1.3,0.6-1.5,1.3c-0.2,0.8-0.1,1.5,0.5,2.1
		c0.9,0.9,1.8,1.8,2.7,2.7c-0.7,0.8-1.4,1.5-2.1,2.2c-0.5,0.6-0.7,1.3-0.3,2c0.3,0.7,0.9,1,1.7,1c0.7,0,1.3,0,2.1,0
		c0,0.4,0,0.6,0,0.9c0,4.2,0,8.5,0,12.7c0,1.5,0,3,0,4.4c0,0.7-0.5,1.2-1.1,1.2c-0.7,0-1.2-0.4-1.2-1.1c0-0.2,0-0.4,0-0.5
		c0-3.7,0-7.3,0-11c-0.1-2.8-2.3-4.9-5.1-5c-0.4,0-0.9,0-1.3,0c0-3.1,0-6.1,0-9.1c0-2.6-1.2-3.8-3.8-3.8c-5.3,0-10.6,0-15.9,0
		c-2.4,0-3.7,1.3-3.7,3.7c0,10,0,20.1,0,30.1c0,0.3,0,0.5,0,0.8C68.8,84.9,68.6,84.9,68.5,84.9z M73,56.4c0-1.3,0.7-2,2-2
		c3.7,0,7.5,0,11.2,0c1.4,0,2,0.7,2,2.1c0,2.6,0,5.3,0,7.9c0,1.4-0.6,2.1-2.1,2.1c-1.8,0-3.7,0-5.5,0c0,0,0,0,0,0
		c-1.8,0-3.6,0-5.5,0c-1.6,0-2.2-0.6-2.2-2.2C73,61.6,73,59,73,56.4z"/>
	<path d="M87.2,0L87.2,0l-2.5,0v0C54.1,0.4,25.9,14.4,7.1,38.6l24.7,19.2c13.1-16.9,32.9-26.6,54.2-26.6c21.3,0,41.1,9.7,54.2,26.6
		l24.7-19.2C146,14.4,117.7,0.4,87.2,0z M121.3,9.1c4.8,1.9,9.4,4.1,13.8,6.7l-12.7,23c-3.4-2-6.9-3.7-10.5-5.2L121.3,9.1z
		 M109.6,32.7c-3.6-1.3-7.3-2.2-11.1-2.9l5.1-25.7c5.2,1,10.3,2.3,15.3,4.1L109.6,32.7z M137.3,17.1c4.5,2.8,8.8,6,12.8,9.5
		l-17.9,19.1c-2.4-2-4.9-3.9-7.5-5.6L137.3,17.1z M101.1,3.7L96,29.4c-2.9-0.4-5.8-0.6-8.8-0.7V2.5C91.9,2.6,96.6,3,101.1,3.7z
		 M84.7,28.7c-3,0.1-5.9,0.3-8.8,0.7L70.7,3.7C75.3,3,80,2.6,84.7,2.5V28.7z M36.8,15.8c4.4-2.6,9-4.8,13.8-6.7l9.3,24.5
		c-3.6,1.4-7.1,3.1-10.5,5.2L36.8,15.8z M47.3,40.1c-2.6,1.7-5.1,3.6-7.5,5.6L21.8,26.6c4-3.5,8.3-6.7,12.8-9.5L47.3,40.1z M53,8.2
		c5-1.8,10.1-3.2,15.3-4.1l5.1,25.7c-3.8,0.7-7.5,1.6-11.1,2.9L53,8.2z M134,47.4l17.9-19.1c3.3,3.1,6.4,6.3,9.3,9.9l-20.7,16.1
		C138.5,51.8,136.3,49.5,134,47.4z"/>
	<rect x="11.1" y="39" transform="matrix(0.6141 -0.7892 0.7892 0.6141 -37.6176 32.3869)" width="6.5" height="31.2"/>
	<rect x="141.9" y="51.4" transform="matrix(0.7892 -0.6141 0.6141 0.7892 -0.3574 108.2812)" width="31.2" height="6.5"/>
	<polygon points="64,109.4 66.9,109.4 66.9,104.1 71.5,104.1 71.5,101.7 66.9,101.7 66.9,98.2 71.8,98.2 71.8,95.9 64,95.9 	"/>
	<path d="M82.6,104.1c0,1.1-0.2,1.8-0.6,2.3c-0.4,0.5-1.1,0.7-2,0.7c-1,0-1.7-0.2-2.1-0.7c-0.4-0.5-0.6-1.3-0.6-2.3v-8.3h-2.9v8.7
		c0,1.6,0.5,2.8,1.4,3.7c1,0.9,2.3,1.3,4.1,1.3c1.2,0,2.2-0.2,3-0.6c0.8-0.4,1.5-1,1.9-1.7c0.4-0.8,0.7-1.6,0.7-2.6v-8.8h-2.9V104.1
		z"/>
	<polygon points="88.8,109.4 96.6,109.4 96.6,107 91.7,107 91.7,103.5 96.3,103.5 96.3,101.2 91.7,101.2 91.7,98.2 96.6,98.2 
		96.6,95.9 88.8,95.9 	"/>
	<polygon points="102.3,95.9 99.5,95.9 99.5,109.4 107.8,109.4 107.8,107 102.3,107 	"/>
	<polygon points="0,123.4 11.2,123.4 11.2,120 4.1,120 4.1,115 10.7,115 10.7,111.6 4.1,111.6 4.1,107.3 11.2,107.3 11.2,103.9 
		0,103.9 	"/>
	<polygon points="160.7,123.4 164.8,123.4 164.8,115.7 171.4,115.7 171.4,112.3 164.8,112.3 164.8,107.3 171.9,107.3 171.9,103.9 
		160.7,103.9 	"/>
</g>
</svg>
