<?xml version="1.0" encoding="utf-8"?>
<!-- Generator: Adobe Illustrator 22.0.0, SVG Export Plug-In . SVG Version: 6.00 Build 0)  -->
<svg version="1.1" id="Layer_2" xmlns="http://www.w3.org/2000/svg" xmlns:xlink="http://www.w3.org/1999/xlink" x="0px" y="0px"
	 viewBox="0 0 474.2 139.2" style="enable-background:new 0 0 474.2 139.2;" xml:space="preserve">
<g>
	<polygon points="211.1,42.6 210.2,34.1 215.1,33.6 216,42.1 220.6,41.7 218.4,20.8 213.8,21.2 214.6,28.5 209.6,28.9 208.8,21.5 
		204.3,21.9 206.5,43 	"/>
	<path d="M226.4,29.5c0.3-0.3,0.8-0.5,1.5-0.6c0.5,0,0.9,0.1,1.1,0.3c0.2,0.3,0.4,0.7,0.5,1.4c-0.5,0.3-0.9,0.6-1.4,0.8
		c-0.4,0.2-1.4,0.6-2.9,1.2c-1.2,0.5-2.1,1.1-2.4,1.9c-0.4,0.8-0.5,1.7-0.4,2.9c0.1,1.2,0.6,2.2,1.3,3c0.7,0.8,1.7,1.1,3,1
		c1-0.1,1.8-0.4,2.4-0.9c0.5-0.4,1-0.9,1.4-1.7c0.1,0.4,0.2,0.7,0.2,0.9c0.1,0.2,0.2,0.5,0.4,0.8l3.8-0.4c-0.3-0.6-0.5-1.1-0.6-1.5
		c-0.1-0.4-0.2-0.9-0.3-1.6l-0.7-6.6c-0.1-0.7-0.3-1.4-0.5-2.2c-0.3-0.8-0.6-1.3-1-1.7c-0.6-0.6-1.2-0.9-2-1c-0.8-0.1-1.8-0.2-3-0.1
		c-0.8,0.1-1.5,0.2-2.1,0.4c-0.6,0.2-1.1,0.5-1.5,0.8c-0.5,0.4-0.8,1-1,1.5c-0.2,0.6-0.4,1.4-0.4,2.3l4,0.2
		C226,30.2,226.2,29.8,226.4,29.5z M229.9,34.5c0.1,0.7,0.1,1.3-0.1,1.8c-0.1,0.5-0.4,0.9-0.7,1.2c-0.4,0.3-0.8,0.5-1.2,0.6
		c-0.4,0-0.8-0.1-1-0.3c-0.3-0.3-0.4-0.6-0.5-1.1c0-0.4,0-0.8,0.2-1.1c0.2-0.3,0.7-0.7,1.5-1.1c0.6-0.3,1.1-0.6,1.7-0.9L229.9,34.5z
		"/>
	<path d="M241,39.7l-0.7-7.1c-0.1-1.3-0.1-2.3,0.2-2.8c0.3-0.5,0.6-0.8,1.1-0.9c0.4,0,0.8,0.1,1.1,0.5c0.3,0.4,0.5,1,0.6,1.9
		l0.9,8.1l4.1-0.4l-1-9.3c-0.2-1.9-0.7-3.3-1.4-4.2c-0.7-0.9-1.7-1.3-2.8-1.2c-0.8,0.1-1.5,0.3-2.1,0.8c-0.5,0.5-1,1.2-1.5,2.2
		l-0.3-2.4l-3.8,0.3l1.6,14.8L241,39.7z"/>
	<path d="M253.3,40.1c-0.3,0.3-0.6,0.5-1.1,0.6c-0.7,0.1-1.4,0-2-0.2l0.7,3.9c1.2,0.1,2.2,0.1,2.7,0c1.4-0.2,2.5-0.7,3.1-1.6
		c0.4-0.7,0.8-1.9,1.1-3.7l2.6-15.8l-4,0.3l-1,9.8l-3.2-9.5l-4.3,0.3l6,14.2C253.7,39.2,253.6,39.8,253.3,40.1z"/>
	<path d="M265.9,26.2c0.3-0.3,0.8-0.5,1.5-0.6c0.5,0,0.9,0.1,1.1,0.3c0.2,0.3,0.4,0.7,0.5,1.4c-0.5,0.3-0.9,0.6-1.4,0.8
		c-0.4,0.2-1.4,0.6-2.9,1.1c-1.2,0.5-2.1,1.1-2.5,1.8c-0.4,0.7-0.5,1.7-0.4,2.8c0.1,1.2,0.6,2.1,1.3,2.8c0.7,0.7,1.7,1,3,0.9
		c1-0.1,1.8-0.4,2.4-0.8c0.5-0.3,1-0.9,1.4-1.6c0.1,0.4,0.2,0.7,0.2,0.9c0.1,0.2,0.2,0.5,0.4,0.8l3.8-0.4c-0.3-0.6-0.5-1-0.6-1.4
		c-0.1-0.4-0.2-0.9-0.3-1.6l-0.7-6.3c-0.1-0.7-0.2-1.4-0.5-2.1c-0.3-0.7-0.6-1.3-1-1.6c-0.6-0.5-1.2-0.9-2-1c-0.8-0.1-1.8-0.1-3,0
		c-0.8,0.1-1.5,0.2-2.1,0.4c-0.6,0.2-1.1,0.5-1.5,0.8c-0.5,0.4-0.8,0.9-1.1,1.5c-0.2,0.6-0.4,1.3-0.4,2.2l4,0.2
		C265.5,26.9,265.7,26.4,265.9,26.2z M269.4,30.9c0.1,0.7,0,1.2-0.1,1.7c-0.1,0.4-0.4,0.8-0.7,1.2c-0.4,0.3-0.8,0.5-1.2,0.6
		c-0.4,0-0.8-0.1-1-0.3c-0.3-0.3-0.4-0.6-0.4-1c0-0.4,0-0.7,0.2-1c0.2-0.3,0.7-0.6,1.5-1c0.6-0.3,1.1-0.6,1.7-0.9L269.4,30.9z"/>
	<path d="M283.7,33.6c0.9,1.4,2.1,2,3.5,1.8c0.7-0.1,1.4-0.3,1.9-0.8c0.4-0.3,0.8-1,1.3-1.9l0.2,2.1l3.8-0.4l-2-19.1l-4.1,0.3
		l0.7,6.6c-0.5-0.5-1-0.9-1.5-1.1c-0.5-0.2-1.1-0.3-1.8-0.3c-1.3,0.1-2.3,0.8-3,2.1c-0.7,1.3-0.9,3.1-0.7,5.4
		C282.2,30.5,282.7,32.2,283.7,33.6z M286.3,25.6c0.3-0.5,0.6-0.8,1.1-0.9c0.5,0,1,0.2,1.4,0.7c0.4,0.5,0.7,1.3,0.8,2.4
		c0.1,1.2,0,2.1-0.2,2.6c-0.3,0.6-0.7,0.9-1.2,0.9c-0.5,0-0.9-0.2-1.3-0.7c-0.4-0.5-0.6-1.3-0.8-2.5C285.9,27.1,286,26.2,286.3,25.6
		z"/>
	<polygon points="297,34.2 301.1,33.8 299.6,20.1 295.6,20.4 	"/>
	<polygon points="299.5,18.4 299.1,14.9 295,15.2 295.4,18.8 	"/>
	<path d="M314.3,29.4l5.1-0.5l1.1,3l4.7-0.5l-7.4-17.9l-4.9,0.4L309.3,33l4.6-0.5L314.3,29.4z M315.8,18.5l2.3,6.5l-3.2,0.3
		L315.8,18.5z"/>
	<polygon points="331.2,30.8 330.5,23.5 335.4,23 336.2,30.3 340.7,29.9 338.8,11.9 334.3,12.3 334.9,18.6 330,19 329.3,12.6 
		324.8,13 326.7,31.3 	"/>
	<path d="M347.3,26.3l5.1-0.5l1,2.8l4.7-0.5l-7.4-17.1l-5,0.4l-3.6,18.3l4.6-0.5L347.3,26.3z M348.8,15.8l2.3,6.2l-3.2,0.3
		L348.8,15.8z"/>
	<path d="M359.7,18.6c0.9,0.8,2.4,1.4,4.5,1.7c1.2,0.2,2.1,0.5,2.4,0.8c0.4,0.3,0.6,0.7,0.6,1.2c0,0.5-0.1,0.9-0.4,1.3
		c-0.3,0.4-0.8,0.6-1.4,0.7c-0.9,0.1-1.6-0.2-2.1-0.9c-0.3-0.4-0.6-1-0.8-1.8l-4.3,0.7c0.3,1.8,1,3.2,2.1,4.2c1.1,1,2.9,1.5,5.4,1.2
		c1.4-0.1,2.6-0.5,3.5-1.1c0.9-0.6,1.5-1.3,2-2.3c0.4-1,0.6-2,0.5-3.1c-0.1-0.9-0.4-1.8-0.9-2.5c-0.5-0.7-1.2-1.3-2.1-1.7
		c-0.9-0.4-2.4-0.8-4.4-1.2c-0.8-0.1-1.4-0.3-1.6-0.5c-0.2-0.2-0.4-0.4-0.4-0.7c0-0.4,0.1-0.7,0.3-1c0.2-0.3,0.6-0.4,1.2-0.5
		c0.6,0,1.2,0.1,1.6,0.4c0.4,0.3,0.7,0.9,0.9,1.6l4.2-0.6c-0.4-1.8-1.1-3-2.2-3.8c-1.1-0.7-2.5-1.1-4.4-0.9
		c-1.5,0.1-2.7,0.4-3.5,0.9c-0.8,0.5-1.4,1.2-1.8,2c-0.4,0.8-0.5,1.7-0.4,2.6C358.2,16.7,358.8,17.8,359.7,18.6z"/>
	<path d="M374.5,17.4c0.9,0.8,2.4,1.4,4.5,1.7c1.2,0.2,2.1,0.5,2.4,0.8c0.4,0.3,0.6,0.7,0.6,1.1c0,0.5-0.1,0.9-0.4,1.3
		c-0.3,0.4-0.8,0.6-1.4,0.7c-0.9,0.1-1.6-0.2-2.1-0.8c-0.3-0.4-0.6-1-0.8-1.8L373,21c0.3,1.7,1,3.1,2.1,4.1c1.1,1,2.9,1.4,5.4,1.2
		c1.4-0.1,2.6-0.5,3.5-1.1c0.9-0.6,1.5-1.3,2-2.3c0.4-1,0.6-2,0.5-3.1c-0.1-0.9-0.4-1.7-0.8-2.4c-0.5-0.7-1.2-1.3-2.1-1.7
		c-0.9-0.4-2.4-0.8-4.4-1.1c-0.8-0.1-1.4-0.3-1.6-0.5c-0.2-0.2-0.4-0.4-0.4-0.7c0-0.4,0.1-0.7,0.3-1c0.2-0.3,0.6-0.4,1.2-0.5
		c0.6,0,1.2,0.1,1.6,0.4c0.4,0.3,0.7,0.9,0.9,1.6l4.2-0.6c-0.4-1.7-1.1-3-2.2-3.7c-1.1-0.7-2.5-1-4.4-0.9c-1.5,0.1-2.7,0.4-3.5,0.9
		c-0.8,0.5-1.4,1.2-1.8,2c-0.4,0.8-0.5,1.7-0.4,2.5C373,15.5,373.6,16.6,374.5,17.4z"/>
	<path d="M47.7,90.3c-1.3-0.4-3.5-0.8-6.5-1c-1.2-0.1-2-0.2-2.3-0.5c-0.3-0.2-0.5-0.5-0.5-0.8c0-0.4,0.2-0.8,0.5-1.1
		c0.4-0.3,1-0.6,1.7-0.7c1-0.1,1.7,0,2.3,0.3c0.6,0.3,1,0.9,1.2,1.8l6.4-1.1c-0.4-2-1.4-3.4-2.9-4.1c-1.5-0.7-3.7-0.9-6.5-0.6
		c-2.3,0.3-4,0.8-5.3,1.4c-1.3,0.7-2.2,1.5-2.8,2.4c-0.6,1-0.9,1.9-0.8,2.9c0.1,1.5,0.8,2.7,2.1,3.5c1.3,0.8,3.5,1.4,6.5,1.6
		c1.8,0.2,3,0.4,3.6,0.8c0.5,0.3,0.8,0.8,0.8,1.3c0,0.5-0.2,1-0.7,1.5c-0.5,0.5-1.2,0.7-2.2,0.8c-1.3,0.1-2.3-0.2-3.1-0.9
		c-0.5-0.4-0.8-1.1-1-2l-6.5,1c0.3,1.9,1.2,3.4,2.7,4.5c1.5,1.1,4.2,1.5,8,1.2c2.2-0.2,3.9-0.6,5.3-1.3c1.4-0.7,2.4-1.6,3.1-2.7
		c0.7-1.1,1-2.4,0.9-3.6c-0.1-1.1-0.4-2-1.1-2.8C50,91.3,49,90.7,47.7,90.3z"/>
	<path d="M73.2,85.1c-0.2-2-0.9-3.5-2.2-4.4c-1.3-0.9-3.2-1.2-5.6-0.9l-11.2,1.4l1.4,19.8l6.9-0.6L61.9,93l3.7-0.4
		c2.7-0.3,4.7-1.1,6-2.4C72.9,88.9,73.4,87.2,73.2,85.1z M66,87.8c-0.5,0.5-1.4,0.8-2.7,0.9l-1.7,0.2l-0.4-4.5l1.9-0.2
		c1.3-0.2,2.1,0,2.6,0.4c0.5,0.4,0.8,0.9,0.8,1.5C66.7,86.7,66.5,87.3,66,87.8z"/>
	<path d="M97.4,97.1L86.9,77.1L79.6,78l-6.4,21.4l7-0.7l0.8-3.5l7.8-0.8l1.5,3.3L97.4,97.1z M82,90.6l1.7-7.7l3.2,7.2L82,90.6z"/>
	<path d="M106.6,96.3l-1-8.7l0.6-0.1c0.6-0.1,1.2,0,1.7,0.3c0.4,0.2,0.9,0.7,1.4,1.5l4.4,6.2l7.8-0.7l-4.1-6
		c-0.2-0.3-0.6-0.7-1.1-1.2c-0.5-0.5-1-0.9-1.2-1c-0.4-0.2-1-0.4-1.9-0.6c1-0.3,1.7-0.7,2.3-1.1c0.8-0.6,1.5-1.4,1.9-2.4
		c0.4-0.9,0.5-2,0.4-3.2c-0.2-1.4-0.7-2.5-1.5-3.4c-0.8-0.9-1.8-1.4-2.9-1.6c-1.1-0.2-2.8-0.2-4.8,0.1l-11.2,1.4l2.3,21.2
		L106.6,96.3z M107.6,78.8c1.2-0.1,2.1-0.1,2.6,0.3c0.5,0.3,0.8,0.8,0.9,1.5c0.1,0.5,0,0.9-0.3,1.3c-0.2,0.4-0.6,0.7-1,0.8
		c-0.9,0.3-1.5,0.5-1.8,0.5l-2.9,0.3l-0.5-4.3L107.6,78.8z"/>
	<polygon points="142.4,92.9 141.7,87.8 129.9,89 129.4,84.6 140,83.5 139.3,78.9 128.8,80.1 128.3,76.6 139.6,75.3 139,70.5 
		120.9,72.8 123.7,94.7 	"/>
	<path d="M159.9,69.7c-1.4-1.1-3.3-1.5-5.8-1.1L142.9,70l3.2,22.6l6.9-0.6l-1.2-8.5l3.7-0.4c2.7-0.3,4.7-1.2,5.8-2.6
		c1.1-1.5,1.5-3.4,1.2-5.7C162.1,72.5,161.3,70.8,159.9,69.7z M155.4,77.6c-0.5,0.5-1.3,0.9-2.7,1l-1.7,0.2l-0.7-5.1l1.9-0.2
		c1.3-0.2,2.2,0,2.7,0.4c0.5,0.4,0.9,1,1,1.8C156,76.4,155.9,77.1,155.4,77.6z"/>
	<path d="M171.2,86.3l7.8-0.8l1.8,3.8l7.2-0.7l-12.2-22.8l-7.3,0.9l-4.6,24.2l7-0.7L171.2,86.3z M172.9,72.4l3.8,8.2l-4.8,0.5
		L172.9,72.4z"/>
	<path d="M212,86.4l-4.6-6.8c-0.2-0.3-0.6-0.8-1.2-1.4c-0.6-0.6-1-1-1.3-1.2c-0.4-0.3-1.1-0.5-1.9-0.7c1-0.4,1.7-0.8,2.2-1.2
		c0.8-0.7,1.4-1.6,1.7-2.6c0.3-1,0.4-2.2,0.1-3.6c-0.3-1.6-0.9-2.8-1.7-3.9c-0.9-1-1.9-1.6-3.1-1.9c-1.2-0.3-2.8-0.3-4.9,0
		l-11.2,1.4l4.1,23.9l6.9-0.6l-1.7-9.8l0.6-0.1c0.6-0.1,1.2,0.1,1.8,0.4c0.4,0.2,0.9,0.8,1.6,1.7l5,7.1L212,86.4z M200.1,71.7
		c-0.2,0.4-0.5,0.7-1,0.9c-0.8,0.3-1.4,0.5-1.7,0.5l-2.9,0.3l-0.9-4.9l3-0.4c1.2-0.1,2.1,0,2.6,0.3c0.5,0.4,0.9,0.9,1,1.7
		C200.4,70.7,200.3,71.2,200.1,71.7z"/>
	<polygon points="215.9,67 219.4,85.7 226.3,85 222.7,66.2 229.6,65.4 228.4,59.1 207.9,61.7 209,67.8 	"/>
	<polygon points="239.3,71.6 230.4,72.5 231.4,78 240.3,77 	"/>
	<polygon points="251.1,82.7 248.2,68.6 259.4,81.9 265.9,81.3 260.4,55.1 254,55.9 257,70.3 245.8,56.9 239.5,57.7 244.7,83.3 	"/>
	<polygon points="276.9,80.3 283.8,79.6 281.3,68.4 286.3,51.8 278.9,52.7 276.5,62.3 270.1,53.9 262.6,54.8 274.5,69.2 	"/>
	<path d="M296.5,73.9l7.8-0.8l2.2,4.4l7.2-0.7L299,50.2l-7.3,0.9l-2.2,28l7-0.7L296.5,73.9z M296.8,57.8l4.7,9.6l-4.8,0.5
		L296.8,57.8z"/>
	<path d="M330.9,70.5l7.8-0.8l2.3,4.6l7.2-0.7l-15.3-27.7l-7.3,0.9l-1.5,29l7-0.7L330.9,70.5z M335.8,63.7l-4.8,0.5l-0.1-10.4
		L335.8,63.7z"/>
	<path d="M364.8,57.8c-0.9-1.2-2.1-2.2-3.6-2.9c-1.5-0.7-3.8-1.3-7-1.8c-1.3-0.2-2.1-0.5-2.5-0.8c-0.4-0.3-0.7-0.7-0.8-1.2
		c-0.2-0.6-0.1-1.2,0.2-1.7c0.3-0.5,0.8-0.8,1.6-0.9c1-0.1,1.8,0.1,2.5,0.6c0.7,0.5,1.3,1.4,1.8,2.7l6.3-1.2c-1.1-3-2.5-5.1-4.3-6.3
		c-1.8-1.2-4.1-1.6-6.9-1.3c-2.3,0.3-4,0.9-5.1,1.8c-1.1,0.9-1.8,2.1-2.2,3.5c-0.3,1.4-0.3,2.8,0.1,4.3c0.6,2.3,1.7,4,3.3,5.3
		c1.6,1.3,4.1,2.3,7.3,2.8c2,0.3,3.3,0.8,3.9,1.3c0.7,0.5,1.1,1.2,1.3,1.9c0.2,0.8,0.1,1.5-0.3,2.2c-0.4,0.7-1.1,1-2,1.1
		c-1.3,0.1-2.5-0.4-3.5-1.5c-0.6-0.7-1.2-1.7-1.7-3.1l-6.4,1.2c0.9,2.9,2.3,5.2,4.3,6.9c1.9,1.8,4.8,2.5,8.6,2.1
		c2.2-0.2,3.8-0.8,5-1.7c1.2-1,2-2.3,2.4-3.9c0.4-1.7,0.3-3.4-0.2-5.3C366.4,60.5,365.8,59,364.8,57.8z"/>
	<polygon points="390.3,69.6 388.4,62.3 377.7,63.3 371.9,41 365.1,41.8 372.8,71.3 	"/>
	<polygon points="400.6,68.7 392.4,38.4 385.7,39.2 393.7,69.3 	"/>
	<path d="M414,46.1c0.6,1,1.5,2.1,2.6,3.4c-1.6,1.3-2.6,2.8-3,4.4c-0.4,1.7-0.4,3.4,0.1,5.1c0.7,2.4,2,4.4,3.9,6
		c1.9,1.6,4.4,2.2,7.3,2c1.9-0.2,3.5-0.6,4.8-1.4c0.9-0.6,1.8-1.4,2.6-2.5c0.6,0.4,1.4,0.8,2.2,1.4c0.8,0.5,1.6,1,2.3,1.4l1.8-5.7
		c-0.5-0.3-1-0.6-1.3-0.8l-2.9-2c0.1-1.1,0.2-2,0.2-2.8c0-0.8,0-1.8-0.1-3.1l-5.2-1c0.1,1,0.1,2,0,2.9c-1.5-1.2-3-2.5-4.5-3.9
		c1-1.3,1.6-2.4,1.9-3c0.3-0.7,0.5-1.5,0.6-2.5c0.1-1,0-2.1-0.3-3.1c-0.5-1.9-1.6-3.5-3.1-4.7c-1.5-1.2-3.5-1.7-6-1.4
		c-2.4,0.3-4,1.2-4.8,2.8c-0.8,1.6-0.9,3.4-0.3,5.6C413,44.1,413.4,45.1,414,46.1z M427.3,59.1c-1,1.3-2.1,2.1-3.2,2.2
		c-1,0.1-2-0.2-2.8-1c-0.9-0.7-1.4-1.6-1.7-2.7c-0.2-0.7-0.2-1.3-0.1-1.9c0.1-0.6,0.5-1.4,1.1-2.3C423.3,56,425.6,57.9,427.3,59.1z
		 M418,40.2c0.2-0.6,0.7-0.9,1.3-0.9c0.6-0.1,1.2,0.1,1.7,0.5c0.5,0.4,0.8,1,1,1.6c0.2,0.6,0.2,1.3-0.1,2.1
		c-0.2,0.8-0.7,1.5-1.3,2.2c-1.6-1.5-2.5-2.7-2.7-3.6C417.7,41.4,417.7,40.8,418,40.2z"/>
	<polygon points="113.9,102.6 106.3,103.3 102.6,110.8 97.3,104 89.6,104.7 99.6,116.2 100.6,125 107.6,124.7 106.6,115.7 	"/>
	<path d="M119.4,102.2l-5.9,22.2l7.2-0.4l0.7-3.6l8-0.5l1.6,3.6l7.4-0.4l-11.4-21.5L119.4,102.2z M122.3,115.6l1.5-8l3.5,7.7
		L122.3,115.6z"/>
	<polygon points="152.4,99.4 154.3,112 144,100.1 137.6,100.7 140.6,123 147.2,122.6 145.5,110.3 155.8,122.2 162.4,121.8 
		158.9,98.9 	"/>
	<path d="M176.4,107.6l0.8,4.9l4.7-0.3l0.4,2.2c-0.8,0.6-1.6,1.1-2.3,1.3c-0.7,0.3-1.4,0.4-2.2,0.5c-1.7,0.1-3-0.4-4.1-1.4
		c-1.1-1-1.8-2.8-2.2-5.3c-0.4-2.4-0.2-4.1,0.5-5.3c0.7-1.2,1.9-1.8,3.4-1.9c1-0.1,1.9,0.1,2.6,0.5c0.7,0.4,1.3,1.1,1.7,1.9l6.5-1.8
		c-0.7-1.5-1.5-2.7-2.5-3.6c-1-0.9-2.1-1.6-3.4-2c-1.3-0.4-3.2-0.4-5.7-0.2c-2.6,0.2-4.5,0.8-5.9,1.6c-1.8,1.1-3.1,2.7-3.8,4.6
		c-0.7,1.9-0.9,4.2-0.5,6.7c0.4,2.4,1.2,4.5,2.4,6.3c1.2,1.8,2.8,3.1,4.6,4c1.9,0.9,4.1,1.2,6.8,1.1c2.2-0.1,4.1-0.5,5.6-1.1
		c1.5-0.6,3.2-1.7,5-3.3l-1.7-10.1L176.4,107.6z"/>
	<polygon points="216,94.1 215.2,109.4 209,94.7 199.9,95.5 204.1,119.6 209.9,119.3 206.6,100.8 214.4,119.1 219.6,118.8 
		220.5,99.7 224,118.6 229.8,118.3 225.1,93.4 	"/>
	<path d="M235.6,92.5l-3.6,25.7l7.2-0.4l0.3-4.2l8-0.5l2,4.1l7.4-0.4l-13.6-25L235.6,92.5z M239.9,108l0.7-9.3l4.3,9L239.9,108z"/>
	<path d="M274.9,103.3c-0.8-1.1-2-2-3.5-2.7c-1.5-0.7-3.8-1.3-7-1.8c-1.3-0.2-2.1-0.5-2.5-0.8c-0.4-0.3-0.7-0.7-0.7-1.1
		c-0.1-0.6,0-1.1,0.3-1.5c0.3-0.4,0.9-0.7,1.7-0.7c1-0.1,1.8,0.1,2.5,0.6c0.7,0.5,1.2,1.3,1.6,2.5l6.5-0.9c-0.9-2.7-2.2-4.6-4-5.8
		c-1.8-1.1-4.1-1.6-6.9-1.3c-2.3,0.2-4.1,0.7-5.3,1.5c-1.2,0.8-2,1.8-2.4,3c-0.4,1.2-0.5,2.5-0.2,3.8c0.4,2,1.4,3.6,3,4.8
		c1.6,1.2,4,2.1,7.2,2.7c2,0.4,3.3,0.8,3.9,1.3c0.6,0.5,1,1.1,1.2,1.8c0.2,0.7,0,1.4-0.4,1.9c-0.4,0.6-1.1,0.9-2.1,0.9
		c-1.3,0.1-2.5-0.4-3.4-1.4c-0.6-0.6-1.1-1.5-1.5-2.8l-6.6,0.9c0.7,2.6,2,4.7,3.8,6.3c1.8,1.6,4.7,2.3,8.6,2.1
		c2.2-0.1,4-0.6,5.3-1.4c1.3-0.8,2.2-2,2.7-3.4c0.5-1.5,0.6-3.1,0.2-4.7C276.4,105.7,275.8,104.4,274.9,103.3z"/>
	<path d="M282.5,88.6l-2.7,27.1l7.2-0.4l0.1-4.5l8-0.5l2.1,4.4l7.4-0.4L290,87.9L282.5,88.6z M287.4,105l0.3-9.8l4.6,9.5L287.4,105z
		"/>
	<polygon points="315.6,85.8 319.1,101.1 307.1,86.5 300.7,87 306.9,114.3 313.5,113.9 310,98.9 322,113.5 328.7,113.1 322.1,85.3 	
		"/>
	<path d="M340.9,96.1l1.4,5.9l4.7-0.3l0.7,2.7c-0.7,0.7-1.4,1.3-2.1,1.6c-0.6,0.3-1.4,0.5-2.1,0.6c-1.7,0.1-3.1-0.5-4.3-1.7
		c-1.2-1.3-2.2-3.4-3-6.5c-0.7-2.9-0.7-5-0.2-6.4c0.6-1.4,1.6-2.2,3.2-2.3c1-0.1,1.9,0.1,2.7,0.7c0.8,0.5,1.5,1.3,2,2.4l6.3-2
		c-0.9-1.8-1.9-3.3-3-4.4c-1.1-1.1-2.3-1.9-3.7-2.4c-1.4-0.5-3.3-0.6-5.8-0.4c-2.6,0.2-4.5,0.8-5.8,1.9c-1.7,1.3-2.7,3.2-3.2,5.5
		c-0.5,2.3-0.3,5,0.4,8.1c0.7,2.9,1.8,5.4,3.2,7.6c1.5,2.2,3.2,3.8,5.2,4.9c2,1,4.3,1.5,7,1.4c2.2-0.1,4-0.5,5.5-1.3
		c1.4-0.7,3-2,4.6-3.9l-3-12.2L340.9,96.1z"/>
	<path d="M369.3,81.3l-1,29.7l7.2-0.4l-0.1-4.9l8-0.5l2.4,4.8l7.4-0.4l-16.2-29.1L369.3,81.3z M375.2,99.4l-0.3-10.7l5.2,10.4
		L375.2,99.4z"/>
	<polygon points="401.9,78.6 404.8,89.2 397.1,89.7 394.3,79.2 387.4,79.8 395.3,109.6 402.4,109.3 399.1,97.1 406.8,96.6 
		410.1,108.9 417.1,108.5 408.8,78 	"/>
	<polygon points="426.8,100.3 420.3,77.1 413.4,77.6 421.8,108.3 439.8,107.3 437.7,99.6 	"/>
	<polygon points="434.5,75.9 443.3,107.1 450.4,106.8 441.5,75.3 	"/>
	<path d="M473.9,101.3l-19.1-74.6c-1.8-8.4-9.6-13.9-18.1-12.8L393,19.8l-0.3-12.3c0-2.1-1-4.2-2.5-5.6c-1.5-1.4-3.5-2-5.5-1.9
		L201.2,15c-3.9,0.3-6.9,3.7-6.8,7.8l0.4,21.8L14.4,67.3C8.8,68,4.1,71.4,1.6,76.5s-2.1,10.9,0.8,15.7l24.9,39.2
		c3,4.9,8.3,7.9,14,7.9c0.4,0,0.8,0,1.2,0l416.5-18c4.7-0.3,9.1-2.7,12-6.5S474.9,106,473.9,101.3z M201.4,18L385,3
		c1.2-0.1,2.3,0.3,3.2,1.1c1,0.9,1.5,2.1,1.5,3.4l0.4,18.4c0.1,2.4-1.6,4.5-3.9,4.7L202.7,52.2c-1.2,0.1-2.4-0.2-3.3-1
		c-1-0.9-1.6-2.1-1.6-3.5l-0.4-24.9C197.3,20.3,199.1,18.2,201.4,18z M468.6,112.9c-2.3,3.1-5.9,5.1-9.7,5.3l-416.5,18
		c-5,0.4-9.8-2.1-12.4-6.4L5,90.6c-2.4-3.9-2.6-8.7-0.6-12.8c2-4.1,5.9-6.9,10.4-7.5l180.1-22.7l0,0.1c0,2.2,1,4.3,2.6,5.7
		c1.4,1.2,3,1.8,4.8,1.8c0.3,0,0.6,0,0.9,0l183.5-21.5c3.8-0.5,6.7-3.8,6.6-7.8l-0.1-3.1l44-5.9c6.9-0.9,13.3,3.6,14.8,10.5
		l19.1,74.6C471.8,105.8,470.9,109.8,468.6,112.9z"/>
</g>
</svg>
