<?xml version="1.0" encoding="utf-8"?>
<!-- Generator: Adobe Illustrator 22.0.0, SVG Export Plug-In . SVG Version: 6.00 Build 0)  -->
<svg version="1.1" id="Layer_1" xmlns="http://www.w3.org/2000/svg" xmlns:xlink="http://www.w3.org/1999/xlink" x="0px" y="0px"
	 viewBox="0 0 203.1 162.2" style="enable-background:new 0 0 203.1 162.2;" xml:space="preserve">
<g>
	<path d="M200.5,0c-1.1,3.7-2.1,7.4-3.3,11c-1.8,5.4-5.5,9.3-10.1,12.5c-5.1,3.4-10.7,5.6-16.4,7.6c-3.3,1.2-6.7,2.4-10,3.6
		c-4.5,1.6-8.9,3.2-13.4,4.8c-5.4,1.9-10.9,3.9-16.3,5.8c-6,2.1-11.9,4.2-17.9,6.4c-4.6,1.7-9.3,3.4-13.9,5
		c-5.2,1.9-10.5,3.7-15.7,5.6c-3.9,1.4-7.9,2.8-11.8,4.2c-4.6,1.6-9.1,3.2-13.7,4.9c-3.8,1.3-7.5,2.7-11.3,4.1
		c-4.5,1.6-9.1,3.2-13.6,4.9c-3.9,1.4-7.8,2.8-11.7,4.2c-1.8,0.7-3.7,1.3-5.5,2c-1.9,0.8-3.6,1.8-4.8,3.5C9,93,9.7,95.6,12.3,97.8
		c2.2,1.9,4.4,3.7,6.5,5.5c3.5,3,6.9,6,10.3,9c2.5,2.2,5,4.5,7.6,6.7c4,3.5,8,7.1,12.1,10.6c1.1,0.9,2.1,1.9,3.2,2.8
		c0.2,0.2,0.5,0.3,0.7,0.5c0,0.1-0.1,0.2-0.1,0.3c-0.2,0-0.5,0.1-0.7,0.1c-4.3,0-8.6,0-12.8,0c-0.5,0-1.1-0.2-1.5-0.6
		c-2.5-2.1-4.9-4.3-7.3-6.5c-2.9-2.6-5.8-5.3-8.6-7.9c-1.7-1.6-3.5-3.2-5.2-4.8c-4.2-4-8.3-8.1-12.5-12.1c-4.7-4.6-5-11-1.6-16.4
		c2.6-4.1,6.6-6.6,11.1-8.2c2.2-0.8,4.4-1.8,6.6-2.6c3.5-1.4,6.9-2.8,10.4-4.2c3.5-1.4,6.9-2.8,10.4-4.3c3.2-1.3,6.5-2.6,9.7-4
		c3.5-1.4,7-2.9,10.5-4.3c4-1.6,8-3.3,12-4.9c2.8-1.1,5.6-2.3,8.4-3.4c4-1.7,8.1-3.3,12.1-5c3.3-1.3,6.5-2.7,9.8-4
		c4-1.7,8.1-3.3,12.1-5c2.8-1.1,5.6-2.3,8.4-3.4c4-1.6,8-3.3,12.1-4.9c2.8-1.2,5.6-2.3,8.4-3.5c4-1.7,8.1-3.3,12.1-5
		c3.3-1.3,6.5-2.7,9.8-4c4-1.6,8-3.3,12.1-4.9c2.8-1.2,5.6-2.3,8.4-3.5c4-1.7,8.1-3.3,12.1-5c0.5-0.2,0.9-0.4,1.4-0.7
		C200.3,0,200.4,0,200.5,0z"/>
	<path d="M203.1,161.6c-6.2,0-12.4,0-18.6,0c-0.7,0-1-0.3-1-1c0-1.1,0-2.1,0-3.2c0-0.7,0.3-0.9,0.9-0.9c0.8,0,1.6,0,2.4,0
		c0.3,0,0.5,0,1-0.1c-0.6-1.1-1.1-2.1-1.7-3c-0.1-0.2-0.5-0.3-0.8-0.3c-3.4,0-6.9,0-10.3,0c-0.3,0-0.8,0.3-0.9,0.5
		c-0.6,0.8-1,1.7-1.5,2.6c0,0.1,0.1,0.2,0.1,0.2c0.7,0,1.4,0,2.2,0c2.3,0,2.2-0.2,2.2,2.1c0,0.6,0,1.3,0,1.9c0,0.8-0.2,1-1,1
		c-2.2,0-4.4,0-6.6,0c-2.2,0-4.5,0-6.7,0c-0.9,0-1.1-0.1-1.1-1.1c0-1,0-1.9,0-2.9c0-1,0.1-1.1,1.1-1.1c0.9,0,1.8,0,2.7,0
		c0.5,0,0.9-0.2,1.2-0.7c2.4-4.2,4.9-8.4,7.3-12.6c0.1-0.2,0.3-0.5,0.5-0.9c-0.4,0-0.7-0.1-1-0.1c-1.3,0-2.5,0-3.8,0
		c-0.6,0-0.9-0.3-0.9-0.9c0-1,0-2.1,0-3.1c0-0.9,0.1-1.1,1.1-1.1c4,0,8,0,12,0c1.8,0,3.6,0,5.4,0c0.7,0,1.1,0.3,1.4,0.9
		c3.1,5.9,6.3,11.7,9.4,17.6c0.3,0.6,0.8,0.9,1.5,0.8c1.1,0,2.3,0,3.4,0C203.1,158.2,203.1,159.9,203.1,161.6z M180.6,143
		c-0.1,0-0.2,0-0.3,0c-1,1.6-1.9,3.3-3,5.1c2.1,0,3.9,0,5.9,0C182.4,146.3,181.5,144.7,180.6,143z"/>
	<path d="M187.3,34.7c-0.3,0.9-0.5,1.6-0.8,2.3c-2.5,6.3-6,12-11.3,16.4c-3.3,2.7-7,4.6-11.2,5.6c-3.7,1-7.3,1.9-11,2.9
		c-6.3,1.6-12.5,3.3-18.8,4.9c-4.3,1.1-8.5,2.3-12.7,3.4c-7.1,1.9-14.2,3.8-21.4,5.6c-4.2,1.1-8.4,2.3-12.7,3.4
		c-5.4,1.4-10.8,2.8-16.2,4.3c-2.9,0.8-5.8,1.5-8.8,2.3c-0.8,0.2-1.6,0.3-2.4,0.5c-1.1,0.3-1.7,1.2-1.8,2.4c0,0.7-0.3,1.1-1,1.2
		c-4.3,1.1-8.6,2.3-13,3.4c-3.1,0.8-6.1,1.6-9.2,2.5c-4.9,1.3-9.7,2.6-14.6,3.9c-0.3,0.1-0.7,0-1-0.1c-1.6-1.1-3.2-2.3-4.3-4
		c-1.2-1.8-0.9-3.6,0.9-4.7c1.3-0.9,2.7-1.6,4.2-2.1c4.5-1.5,9-2.9,13.5-4.4c5-1.6,10.1-3.3,15.1-4.9c4.1-1.3,8.3-2.7,12.4-4.1
		c4.3-1.4,8.7-2.8,13-4.2c3.4-1.1,6.8-2.2,10.2-3.3c6.8-2.2,13.5-4.4,20.3-6.6c5.1-1.7,10.2-3.4,15.3-5c5-1.6,10-3.2,14.9-4.8
		c4.3-1.4,8.5-2.8,12.8-4.2c4.3-1.4,8.6-2.8,13-4.2c4.4-1.4,8.8-2.9,13.2-4.3c3.9-1.3,7.8-2.6,11.8-3.8
		C186.4,34.9,186.7,34.8,187.3,34.7z"/>
	<path d="M172.8,62.8c-0.5,0.7-0.9,1.5-1.4,2.2c-2.1,3.4-4.1,6.7-6.8,9.6c-4.7,5.1-10.5,8.3-17.3,9.6c-3.7,0.7-7.3,1.4-11,2.1
		c-4.5,0.8-9.1,1.6-13.6,2.5c-3.4,0.6-6.7,1.3-10.1,1.9c-5.6,1-11.1,2-16.7,3.1c-5.3,1-10.7,1.9-16,3c-1,0.2-2,0.7-3,1.2
		c-0.7,0.4-1.1,1.2-1.2,2c0,0.6-0.3,0.8-0.9,1c-6.5,1.2-13.1,2.5-19.6,3.7c-3.9,0.7-7.8,1.5-11.7,2.2c-4,0.7-8,1.5-12,2.3
		c-0.6,0.1-1,0-1.5-0.4c-2.3-2.1-4.7-4.2-7-6.3c-0.8-0.7-0.7-0.9,0.3-1.1c5.3-1.4,10.7-2.8,16-4.1c2.3-0.6,4.6-1.2,6.9-1.8
		c4.9-1.3,9.7-2.5,14.6-3.8c5.3-1.4,10.5-2.7,15.8-4.1c4.9-1.3,9.9-2.6,14.8-3.9c5.8-1.5,11.7-3,17.5-4.5c5.9-1.5,11.8-3.1,17.7-4.6
		c7.3-1.9,14.5-3.7,21.8-5.6c6.4-1.7,12.8-3.3,19.2-5c1.4-0.4,2.9-0.7,4.3-1.1c0.2-0.1,0.5-0.1,0.7-0.1
		C172.7,62.6,172.7,62.7,172.8,62.8z"/>
	<path d="M152.8,89c-0.6,0.9-1.2,1.8-1.9,2.7c-1.9,2.8-4,5.4-6.4,7.7c-4,3.8-8.7,6-14.2,6.6c-3.7,0.4-7.4,1.1-11.1,1.6
		c-6.1,0.9-12.2,1.8-18.4,2.6c-0.6,0.1-1.2,0.2-1.7,0.4c-1,0.4-1.7,1.1-1.7,2.2c0,0.8-0.4,1-1.1,1.1c-4.4,0.5-8.7,1.1-13.1,1.6
		c-2.9,0.4-5.8,0.7-8.7,1.1c-7.2,0.9-14.4,1.7-21.6,2.6c-2.8,0.3-5.7,0.7-8.5,1.1c-0.8,0.1-1.4-0.1-2-0.6c-2.3-2.1-4.7-4.2-7-6.3
		c-0.5-0.4-1-0.9-1.5-1.3c0-0.1,0-0.2,0-0.3c39.5-7.7,79.1-15.4,118.6-23.1C152.8,88.9,152.8,88.9,152.8,89z"/>
	<path d="M46,123.1c0.6-0.1,0.9-0.2,1.3-0.2c3.7-0.5,7.5-1,11.2-1.4c5.8-0.7,11.7-1.5,17.5-2.3c4-0.5,8-1,12.1-1.5
		c4-0.5,7.9-1,11.9-1.5c0.8-0.1,1.5,0,2.2,0.5c5,3.3,10.1,6.5,15.2,9.7c3,1.9,6,3.8,9.1,5.8c0.4,0.2,0.7,0.5,1,0.9
		c-0.3,0-0.5,0.1-0.8,0.1c-23,0-46,0-69,0c-0.7,0-1.2-0.2-1.7-0.7c-3.2-2.9-6.4-5.8-9.5-8.7C46.4,123.5,46.3,123.4,46,123.1z"/>
	<path d="M34.3,137.7c2.6,0,5.2,0,7.8,0c1.3,0,1.4,0.1,1.4,1.4c0,0.8,0,1.6,0,2.4c0,0.6-0.3,0.9-0.9,0.9c-1,0-1.9,0-2.9,0
		c-0.6,0-0.8,0.3-0.8,0.8c0,4.2,0,8.4,0,12.5c0,0.6,0.3,0.9,0.9,0.9c0.9,0,1.9,0,2.8,0c0.6,0,0.9,0.3,0.9,0.9c0,0.8,0,1.6,0,2.4
		c0,1.3-0.1,1.3-1.3,1.3c-4.9,0-9.7,0-14.6,0c-0.5,0-1,0-1.5,0c-0.7,0-0.9-0.3-0.9-0.9c0-0.9,0-1.8,0-2.7c0-0.6,0.3-0.9,0.9-0.9
		c1,0,1.9,0,2.9,0c0.6,0,0.9-0.2,0.9-0.9c0-1,0-2,0-3c0-0.6-0.3-0.8-0.8-0.8c-4,0-7.9,0-11.9,0c-0.6,0-0.8,0.3-0.8,0.9c0,1,0,2,0,3
		c0,0.6,0.3,0.8,0.8,0.8c1,0,2,0,2.9,0c0.7,0,0.9,0.3,0.9,0.9c0,0.9,0,1.8,0,2.7c0,0.9-0.2,1-1,1c-2.7,0-5.4,0-8.1,0
		c-2.6,0-5.3,0-7.9,0c-1.2,0-1.2-0.1-1.2-1.3c0-0.8,0-1.6,0-2.4c0-0.6,0.3-0.9,0.9-0.9c0.9,0,1.9,0,2.8,0c0.6,0,0.9-0.3,0.9-0.9
		c0-4.2,0-8.3,0-12.5c0-0.7-0.3-0.9-0.9-0.9c-0.9,0-1.8,0-2.7,0c-0.7,0-0.9-0.3-0.9-0.9c0-0.8,0-1.7,0-2.5c0-1,0.1-1.2,1.1-1.2
		c3.2,0,6.3,0,9.5,0c2.2,0,4.4,0,6.6,0c0.9,0,1.1,0.1,1.1,1.1c0,0.9,0,1.8,0,2.7c0,0.6-0.3,0.9-0.9,0.9c-1,0-2,0-2.9,0
		c-0.6,0-0.9,0.3-0.8,0.8c0,1,0,2,0,3c0,0.6,0.3,0.8,0.8,0.8c4,0,8,0,11.9,0c0.5,0,0.8-0.2,0.8-0.8c0-1,0-2.1,0-3.1
		c0-0.6-0.3-0.8-0.9-0.8c-1,0-1.9,0-2.9,0c-0.7,0-1-0.3-1-1c0-0.8,0-1.7,0-2.5c0-1,0.1-1.1,1.1-1.1C29,137.7,31.6,137.7,34.3,137.7z
		"/>
	<path d="M92.6,143.9c0,0.3-0.1,0.5-0.1,0.8c0,3.7,0,7.4,0,11.1c0,1,0.1,1.1,1.1,1.1c0.7,0,1.3,0,2,0c0.5,0,0.8,0.2,0.8,0.8
		c0,0.9,0,1.8,0,2.7c0,0.6-0.3,0.8-0.8,0.8c-4.1,0-8.2,0-12.3,0c-0.6,0-0.9-0.3-0.9-0.8c0-0.9,0-1.8,0-2.7c0-0.6,0.3-0.8,0.8-0.8
		c0.8,0,1.7,0,2.5,0c0.6,0,0.9-0.2,0.9-0.9c0-4.3,0-8.7,0-13c0-0.7-0.3-0.9-0.9-0.9c-0.8,0-1.6,0-2.4,0c-0.6,0-0.9-0.2-0.9-0.9
		c0-0.9,0-1.7,0-2.6c0-0.6,0.3-0.9,0.9-0.9c0.9,0,1.8,0,2.7,0c4.5,0,9,0,13.5,0c0.9,0,1.4,0.3,1.9,1c3.2,4.6,6.4,9.1,9.6,13.6
		c0.5,0.8,1.1,1.5,1.8,2.2c0-0.2,0.1-0.5,0.1-0.7c0-3.5,0-7.1,0-10.6c0-1.1-0.1-1.2-1.2-1.2c-0.6,0-1.2,0-1.8,0
		c-0.6,0-0.9-0.2-0.9-0.8c0-0.9,0-1.8,0-2.7c0-0.5,0.3-0.8,0.8-0.8c4.1,0,8.2,0,12.2,0c0.5,0,0.8,0.2,0.8,0.8c0,0.9,0,1.8,0,2.7
		c0,0.6-0.3,0.8-0.8,0.8c-0.9,0-1.7,0-2.6,0c-1,0-1.1,0.1-1.1,1.1c0,5.5,0,11,0,16.4c0,1.6,0,1.6-1.6,1.6c-3.5,0-7,0-10.5,0
		c-0.8,0-1.4-0.3-1.9-1c-3.4-4.9-6.9-9.7-10.4-14.6c-0.4-0.6-0.8-1.2-1.2-1.8C92.8,143.9,92.7,143.9,92.6,143.9z"/>
	<path d="M126.5,161.2c-1.1,0-1.2-0.1-1.2-1.2c0-0.8,0-1.7,0-2.5c0-0.6,0.3-0.9,0.9-0.9c0.8,0,1.6,0,2.4,0c0.6,0,0.9-0.2,0.9-0.9
		c0-4.2,0-8.3,0-12.5c0-0.7-0.3-0.9-0.9-0.9c-0.8,0-1.5,0-2.3,0c-0.9,0-1-0.1-1.1-1c0-0.9,0-1.7,0-2.6c0-0.8,0.2-1,1-1
		c0.3,0,0.5,0,0.8,0c6.1,0,12.2,0.1,18.3,0c2.1,0,4.2-0.1,6.3,0.3c4.3,0.9,7.7,2.8,9.3,7.1c1,2.7,0.9,5.4,0,8.2
		c-1.7,5-5.4,7.4-10.4,7.7C146.4,161.2,130.3,161.2,126.5,161.2z M139.3,149.4c0,2,0,4.1,0,6.1c0,0.9,0.1,1,1,1c1.8,0,3.6,0,5.5,0
		c1.5,0,2.9-0.5,4.1-1.3c2.7-1.8,3.5-4.6,2.4-7.8c-1.1-3.2-3.7-5.1-7.1-5.1c-1.6,0-3.3,0-4.9,0c-0.9,0-1.1,0.1-1.1,1.1
		C139.3,145.4,139.3,147.4,139.3,149.4z"/>
	<path d="M79.1,142.5c-2-2.8-4.9-4.3-8.1-5.2c-3.3-1-6.6-1.3-10-1c-3.3,0.3-6.6,1-9.6,2.5c-2.8,1.4-5,3.5-6.1,6.5
		c-1.8,5.2,0.6,11.2,5.3,13.9c2.3,1.3,4.7,2.1,7.2,2.4l0,0c4.6,0.8,7.3,0.5,8.4,0.2c2.5-0.3,4.9-0.8,7.2-1.9
		c4.7-2.2,7.5-5.7,7.4-11.6C81.1,146.6,80.5,144.4,79.1,142.5z M65.1,157c-2.1,0.5-4.3,0-5-0.2c-0.8-0.3-1.5-0.8-2.1-1.4
		c-2.2-2.1-3.7-6.1-2-9.8c1.9-4.2,5.8-5.7,9.9-3.9c2.9,1.3,4.6,3.6,4.6,6.9C70.6,152.1,68.8,155.9,65.1,157z"/>
</g>
</svg>
