<?xml version="1.0" encoding="utf-8"?>
<!-- Generator: Adobe Illustrator 22.0.0, SVG Export Plug-In . SVG Version: 6.00 Build 0)  -->
<svg version="1.1" id="Layer_1" xmlns="http://www.w3.org/2000/svg" xmlns:xlink="http://www.w3.org/1999/xlink" x="0px" y="0px"
	 viewBox="0 0 330.6 66.6" style="enable-background:new 0 0 330.6 66.6;" xml:space="preserve">
<style type="text/css">
	.st0{fill:#FFFFFF;}
	.st1{opacity:0.45;fill:#FFFFFF;}
	.st2{opacity:0.63;fill:#FFFFFF;}
	.st3{opacity:0.49;}
</style>
<g>
	<g>
		<path class="st0" d="M106.3,41.7h0.2l9.8-30.4h13.3v43.4h-10.1v-28l-0.2,0l-9.6,28H103l-9.4-27.6l-0.2,0v27.5H83.3V11.3h13.2
			L106.3,41.7z"/>
		<path class="st0" d="M159.7,46.3h-12.9l-2.5,8.4h-10.6l14.2-43.4h5.4v0l0,0h5.4l14.2,43.4h-10.6L159.7,46.3z M149.2,38.6h8.3
			l-4.1-13.5h-0.2L149.2,38.6z"/>
		<path class="st0" d="M186.1,38.1v16.6H176V11.3h15.1c5,0,9,1.2,12,3.5c2.9,2.3,4.4,5.5,4.4,9.5c0,2.2-0.6,4.2-1.8,5.8
			c-1.2,1.6-2.9,2.9-5.2,3.9c2.7,0.8,4.6,2,5.7,3.8c1.2,1.8,1.7,4,1.7,6.6v2.7c0,1.1,0.2,2.4,0.5,3.9c0.3,1.5,0.9,2.5,1.8,3.1v0.6
			h-10.4c-0.8-0.6-1.3-1.7-1.5-3.3c-0.2-1.5-0.4-3-0.4-4.4v-2.6c0-2.1-0.5-3.6-1.6-4.7c-1.1-1.1-2.7-1.6-4.8-1.6H186.1z M186.1,30.4
			h5.1c2,0,3.6-0.5,4.7-1.4c1.1-0.9,1.6-2.3,1.6-4c0-1.8-0.6-3.2-1.7-4.3c-1.1-1.1-2.7-1.6-4.7-1.6h-5V30.4z"/>
		<path class="st0" d="M216.5,54.7V11.3h13.7c5.7,0,10.2,1.7,13.7,5.2s5.2,8,5.2,13.5V36c0,5.5-1.7,10.1-5.2,13.5
			c-3.4,3.5-8,5.2-13.7,5.2H216.5z M222.4,16v34.2h7.8c4,0,7.2-1.3,9.5-4c2.3-2.6,3.5-6,3.5-10.2v-6c0-4.1-1.2-7.5-3.5-10.1
			c-2.3-2.6-5.5-4-9.5-4H222.4z"/>
		<path class="st0" d="M291,36.9c0,5.3-1.6,9.7-4.9,13.2c-3.3,3.5-7.6,5.2-12.8,5.2c-5.1,0-9.2-1.7-12.4-5.2
			c-3.2-3.5-4.8-7.9-4.8-13.2v-7.7c0-5.3,1.6-9.7,4.8-13.2c3.2-3.5,7.3-5.3,12.4-5.3c5.2,0,9.5,1.8,12.8,5.3
			c3.3,3.5,4.9,7.9,4.9,13.2V36.9z M285.2,29.1c0-4-1.1-7.2-3.2-9.8c-2.1-2.5-5-3.8-8.6-3.8c-3.4,0-6.1,1.3-8.2,3.8
			c-2,2.5-3.1,5.8-3.1,9.8v7.8c0,4,1,7.3,3.1,9.8c2,2.5,4.8,3.8,8.2,3.8c3.6,0,6.5-1.3,8.7-3.8c2.1-2.5,3.2-5.8,3.2-9.9V29.1z"/>
		<path class="st0" d="M330.5,40.9l0.1,0.2c0.1,4.1-1.4,7.5-4.3,10.2c-2.9,2.7-6.8,4.1-11.7,4.1c-4.9,0-8.9-1.7-12-5.2
			c-3.1-3.5-4.6-7.9-4.6-13.2v-7.7c0-5.3,1.5-9.8,4.6-13.3c3.1-3.5,7.1-5.2,12-5.2c4.9,0,8.8,1.3,11.7,3.9c2.9,2.6,4.3,6.1,4.2,10.4
			l-0.1,0.2h-5.6c0-3-0.9-5.4-2.7-7.2c-1.8-1.8-4.3-2.7-7.6-2.7c-3.3,0-5.9,1.3-7.8,4c-1.9,2.6-2.9,5.9-2.9,9.8v7.8
			c0,4,1,7.3,2.9,9.9c1.9,2.6,4.6,4,7.8,4c3.3,0,5.8-0.9,7.6-2.6c1.8-1.8,2.7-4.2,2.7-7.3H330.5z"/>
	</g>
	<g>
		<g>
			<path class="st1" d="M0,22.8v20.4c0,4.5,2.4,8.7,6.3,11L24,64.3c3.9,2.3,8.7,2.3,12.7,0l17.6-10.2c3.9-2.3,6.3-6.4,6.3-11V22.8
				c0-4.5-2.4-8.7-6.3-11L36.6,1.7c-3.9-2.3-8.7-2.3-12.7,0L6.3,11.9C2.4,14.1,0,18.3,0,22.8z"/>
			<path class="st2" d="M9.5,10L4.4,13C1.7,14.6,0,17.5,0,20.6v24.8c0,3.2,1.7,6.1,4.4,7.6l21.4,12.4c2.7,1.6,6.1,1.6,8.8,0L56.1,53
				c2.7-1.6,4.4-4.5,4.4-7.6v-3.3L9.5,10z"/>
			<path class="st0" d="M41.7,51.5c-2.8,1.4-6.2,1.1-8.8-0.6L12.4,37c-2.6-1.8-4.1-4.8-3.9-7.9l1-19l51,32.3L41.7,51.5z"/>
		</g>
		<g class="st3">
			<g>
				<path class="st0" d="M9.1,18c0,0.1,0,0.2,0,0.3c0,0,0,0.1,0,0.1L9.1,18z"/>
				<path class="st0" d="M25.7,20.3h22.7c1.1,0,2-0.9,2-2c0-1.1-0.9-2-2-2h-29L25.7,20.3z"/>
			</g>
			<path class="st0" d="M37.4,27.6h11.1c1.1,0,2-0.9,2-2c0-1.1-0.9-2-2-2H31.1L37.4,27.6z"/>
			<g>
				<path class="st0" d="M48.2,34.5h0.2c1.1,0,2-0.9,2-2s-0.9-2-2-2H42L48.2,34.5z"/>
			</g>
		</g>
	</g>
</g>
</svg>
