<?xml version="1.0" encoding="utf-8"?>
<!-- Generator: Adobe Illustrator 22.0.0, SVG Export Plug-In . SVG Version: 6.00 Build 0)  -->
<svg version="1.1" id="Layer_2_1_" xmlns="http://www.w3.org/2000/svg" xmlns:xlink="http://www.w3.org/1999/xlink" x="0px" y="0px"
	 viewBox="0 0 448.9 132" style="enable-background:new 0 0 448.9 132;" xml:space="preserve">
<g>
	<path d="M168.9,53.8h-63.6L103,57h37.1l-14.5,19.7H122l-2.3,3.2h3.6l-11.8,16h10.3l11.8-16h23.2h0.8l14.1-19.2
		C176.6,53.3,168.9,53.8,168.9,53.8z M161.8,60.1l-12.3,16.6h-13.7L150.4,57h10.5C160.9,57,164.2,56.7,161.8,60.1z"/>
	<path d="M253.1,64.3l3.2-4.3c1.9-2.5,0.1-6.1-3.1-6.1h-2.8h-13.3h-7.2h-3.2l-16.9,22.8h-31.7l4.7-6.4h13.3h7.5h2.9l7.6-10.2
		c1.9-2.6,0.1-6.2-3.1-6.2h-2.6h-13.3h-5.2h0.2c-1.3,0-5.7-0.1-8.8,4.6l-15.8,21.4h7.5h2.8h31.7h2.7h7.6L234.7,57h8.4
		c2,0,3.2,2.3,2,4l-2.4,3.3H253.1z M203,61.2l-4.3,5.9h-13.3l5-6.7c1.6-2.1,4-3.4,6.7-3.4h3.9C203,57,204.3,59.5,203,61.2z"/>
	<path d="M416.2,76.7l16.9-22.8h-3.3h-7h-13.3h-1.6c-5.5,0-10.6,2.6-13.9,7l-11.7,15.8H374l12-16.5c2-2.6,0.1-6.4-3.2-6.4h-2.4
		h-13.3h-7.8h-2.5l-16.9,22.8h-9.3l16.9-22.8h-2h-8.4h-13.3h-2c-5.2,0-10.1,2.5-13.2,6.7l-11.9,16.2h-9.8l28.7-38.8h-10.3l-11.8,16
		h-14.2H277c-5,0-9.8,2.4-12.8,6.4L254.1,74c-1.8,2.4-0.1,5.9,3,5.9h3h14.2h10.3h9.8h10.3H318h10.3h9.3h7.2h3.1L364.7,57h8.5
		c2,0,3.2,2.3,2,3.9l-14,18.9h0.9h9.5h8.3h10.3h13.3h10.3h32.7l2.3-3.2L416.2,76.7L416.2,76.7z M264.5,73.6l8.7-11.8
		c2.2-3,5.7-4.8,9.4-4.8h8.3l-14.5,19.7H266C264.5,76.7,263.6,74.9,264.5,73.6z M309.1,73.6l8.7-11.8c2.2-3,5.8-4.8,9.5-4.8h7.3
		l-14.5,19.7h-9.6C309.1,76.7,308.2,74.9,309.1,73.6z M395,73.3l8.5-11.5c2.2-3,5.7-4.8,9.5-4.8h7.4l-14.5,19.7h-9.2
		C395,76.7,394,74.7,395,73.3z"/>
</g>
<g>
	<path d="M175,90.1h-1.9h-8.9h-4.4H151h-4.4h-15l-1.1,1.5h15l-9.1,12.4h4.4l9.1-12.4h8.8l-9.1,12.4h4.4l9.1-12.4h7.4
		c0.6,0,1,0.7,0.6,1.2l-8.2,11.2h4.4l8.7-11.9C176.6,91.3,176,90.1,175,90.1L175,90.1z"/>
	<path d="M195.4,90.1h-8.9h-1.2c-2,0-3.9,1-5.1,2.6l-6.3,8.6c-0.8,1.1,0,2.7,1.4,2.7h1.1h11c1.5,0,2.9-0.7,3.8-1.9l7-9.6
		c0.7-1,0-2.4-1.2-2.4C197,90.1,195.4,90.1,195.4,90.1z M178.9,100.5l5.2-7c0.9-1.2,2.2-1.8,3.7-1.8h4.3c1,0,1.5,1.1,1,1.9l-5.4,7.3
		c-0.8,1.1-2.1,1.7-3.4,1.7H180C178.9,102.5,178.3,101.3,178.9,100.5z"/>
	<path d="M238.1,90.1h-8.9H228c-2,0-3.9,1-5.1,2.6l-6.3,8.6c-0.8,1.1,0,2.7,1.4,2.7h1.1h11c1.5,0,2.9-0.7,3.8-1.9l7-9.6
		c0.7-1,0-2.4-1.2-2.4C239.7,90.1,238.1,90.1,238.1,90.1z M221.6,100.5l5.2-7c0.9-1.2,2.2-1.8,3.7-1.8h4.3c1,0,1.5,1.1,1,1.9
		l-5.4,7.3c-0.8,1.1-2.1,1.7-3.4,1.7h-4.2C221.6,102.5,221,101.3,221.6,100.5z"/>
	<path d="M213.8,85.1h-4.4l-3.7,5H202l-1.1,1.5h3.7l-7.5,10.2c-0.7,0.9,0,2.2,1.1,2.2h1.6h12.9l1.1-1.5h-11.2
		c-0.7,0-1.1-0.8-0.7-1.3l7.1-9.6h8.8l1.1-1.5h-8.8L213.8,85.1z"/>
	<path d="M260.3,90.1h-8.9h-3.9H247L236.8,104h4.4l9.1-12.4h7.6c0.6,0,0.9,0.6,0.6,1.1l-2.4,3.3h4.4l3-4.1c0.5-0.7,0-1.7-0.9-1.7
		h-2.3V90.1z"/>
</g>
<polygon points="445.7,111.7 448.1,108.5 61.6,108.5 59.3,111.7 "/>
<path d="M91.8,96L88,95.4c0,0-1.4-1.1-0.3-2.3s5.3-1.6,5.8-1.1s0.8,2.4,0.8,2.4s1.1-1.6,0.9-2.1s1-1,2-0.6c0,0,1.1-2.9-8.6-1
	c0,0-3.9,2.5-8-1.1s-7.9-5.8-7.9-5.8s-0.4-2.4,1.6-4.3s7.9-4.4,7.9-4.4l2.1,1.9c0,0,0.4,3.1,2.4,3.6c0,0-2-3.3-0.6-5
	c0,0,5,0.5,4.8,4.8c0,0,2.9-2.9,1.1-4.9l-1.4-1.9c0,0,1.4-4.4-7-6.9l-7-0.7c0,0,11-14.1,12.4-19.3s5.8-12.5,5.8-12.5l6.1-9.9
	c0,0,7.4-9.9,6.8-12.8S106,7.3,106,7.3s0.8,8.3-2.4,4.9c0,0-1.3,6.5-4,2.6c0,0-0.5,9-4,4.9c0,0,0,11.4-5.3,17s-16.9,18-16.9,18
	L61.1,65.3L45.5,49.6l-8.1-8.5c0,0-1.4-1-3.8-10.3c0,0-2.5-3.5-3.4-5.6s-1.8-4.6-1.8-4.6l-0.6,2.5c0,0-0.8,2-3.4-1.9
	S18.1,11.6,14.3,0c0,0-0.4,8.9,1,16.6c0,0-0.8,5.1-6.5-11.1c0,0-1.1,1.5,1.9,16c0,0,1.6,6-2.6-0.5s-4.6-7.8-4.6-7.8S4.5,18.3,8,26
	s-2.3,2.1-3.1,0.9s-4.3-5.4-4.3-5.4s4.3,9.6,8.1,13.6c0,0,3.3,3.3,2.3,3S5,36,5,36l6.6,4.8c0,0,2.5,1.9-2.6,1.1c0,0,3.3,2.8,5.5,3.3
	s0.3,0.5,0.3,0.5L14.5,47H12c0,0,5.4,36.1,35.9,30.1c0,0,1.6,0.5-0.8,2.9s-12.5,8-16,12.1S14,106.9,14,106.9l2.4,0.8L0,122.8
	l0.3,5.6l4.6-0.9l17.6-17L7.6,127.8L6.9,132l7-2.8l12.8-16.9l-8.3,15.3l-0.5,4.1l7.8-4.9l4.6-12.8l-2.8,13.1l2,2.1l2.9-2.5l0.9-12.5
	l0.1,12.3l1.9,2l2.8-2.8l-1.1-9.6l3,10.6l3.3,0.6l-0.4-2.1l-4-9.3L44,126l3.1,1.4l0.5-1.3L42,115.5l6.8,10.4l3.3,0.5l-1.3-4l-8.6-15
	L65,98.1l5.8-1.8l5.9-2.3l4.1-0.4c0,0-4.4,1.4-4.8,3.5s3.3,2.6,3.3,2.6s-2.9-0.9-0.9-3.3s7.1-2.8,7.1-2.8s1,1,0.5,1.6
	s-6.5,1.4-6.6,2.9s1.4,2.4,2.8,2.4c0,0-2.8-3.5,3-3.5s11,1.5,12,4.3c0,0,1,0.8,0.5,1.5c0,0,1.9-0.5,0.5-2.3c0,0,1.3,0,1.4,1.8
	l-0.5,1.4c0,0,2.5-0.6,2-2.4S91.8,96,91.8,96z M88.4,72c0,0-2.5,1.1-2.9-2.1L88.4,72z"/>
</svg>
